<?xml version="1.0" standalone="no"?>
<!DOCTYPE svg PUBLIC "-//W3C//DTD SVG 1.1//EN" "http://www.w3.org/Graphics/SVG/1.1/DTD/svg11.dtd" >
<svg xmlns="http://www.w3.org/2000/svg" xmlns:xlink="http://www.w3.org/1999/xlink" version="1.1">
<metadata>
Created by FontForge 20170924 at Fri May 24 12:37:44 2019
 By www-data
Copyright 2019 Ogilvy &#38; Mather
</metadata>
<defs>
<font id="GilbertBoldPreview5" horiz-adv-x="632" >
  <font-face 
    font-family="Gilbert Bold Preview5"
    font-weight="400"
    font-stretch="normal"
    units-per-em="1000"
    panose-1="0 0 0 0 0 0 0 0 0 0"
    ascent="800"
    descent="-200"
    x-height="440"
    cap-height="699"
    bbox="-10 -318 1172 1012"
    underline-thickness="0"
    underline-position="0"
    unicode-range="U+000A-E908"
  />
<missing-glyph horiz-adv-x="577" 
d="M50 700h427v-700h-427v700zM78 680l185 -309l186 309h-371zM251 350l-180 300v-601zM264 329l-185 -308h370zM276 350l181 -303v605z" />
    <glyph glyph-name=".notdef" horiz-adv-x="577" 
d="M50 700h427v-700h-427v700zM78 680l185 -309l186 309h-371zM251 350l-180 300v-601zM264 329l-185 -308h370zM276 350l181 -303v605z" />
    <glyph glyph-name=".null" horiz-adv-x="0" 
 />
    <glyph glyph-name=".null" horiz-adv-x="0" 
 />
    <glyph glyph-name="nonmarkingreturn" horiz-adv-x="333" 
 />
    <glyph glyph-name="controlLF" unicode="&#xa;" horiz-adv-x="0" 
 />
    <glyph glyph-name="controlCR" unicode="&#xd;" horiz-adv-x="0" 
 />
    <glyph glyph-name="space" unicode=" " horiz-adv-x="287" 
 />
    <glyph glyph-name="exclam" unicode="!" horiz-adv-x="221" 
d="M181 -9h-141v144h141v-144zM181 191h-141v580h141v-580z" />
    <glyph glyph-name="quotedbl" unicode="&#x22;" horiz-adv-x="387" 
d="M161 467h-121v313h121v-313zM347 467h-121v313h121v-313z" />
    <glyph glyph-name="numbersign" unicode="#" horiz-adv-x="565" 
d="M525 389h-110l-21 -78h90v-81h-113l-32 -118l-78 22l27 96h-77l-32 -118l-78 22l27 96h-88v81h110l21 78h-90v80h113l32 118l78 -21l-27 -97h77l32 118l78 -21l-27 -97h88v-80zM310 311l21 78h-76l-21 -78h76z" />
    <glyph glyph-name="dollar" unicode="$" horiz-adv-x="506" 
d="M307 394q166 -71 160 -212q-4 -69 -48 -120.5t-112 -67.5v-70h-107v69q-37 7 -67 24.5t-47.5 39t-27 36.5t-14.5 30l113 42q12 -32 43 -46v187q-166 70 -160 212q3 69 47.5 120t112.5 67v71h107v-69q37 -8 67 -25t47.5 -38.5t26.5 -37t15 -29.5l-113 -43q-12 32 -43 46
v-186zM161 512q-2 -40 39 -69v133q-37 -22 -39 -64zM346 187q1 40 -39 70v-134q37 22 39 64z" />
    <glyph glyph-name="percent" unicode="%" horiz-adv-x="777" 
d="M199 382q-66 0 -112.5 46.5t-46.5 112t46.5 112.5t112.5 47t112.5 -47t46.5 -112.5t-46.5 -112t-112.5 -46.5zM199 592q-21 0 -36 -15t-15 -36.5t15 -36.5t36 -15t36 15t15 36.5t-15 36.5t-36 15zM578.5 318q65.5 0 112 -46.5t46.5 -112.5t-46.5 -112.5t-112 -46.5
t-112.5 46.5t-47 112.5t47 112.5t112.5 46.5zM578.5 108q21.5 0 36.5 15t15 36t-15 36t-36.5 15t-36.5 -15t-15 -36t15 -36t36.5 -15zM706 652l-550 -673l-85 70l551 672z" />
    <glyph glyph-name="ampersand" unicode="&#x26;" horiz-adv-x="585" 
d="M266 453h279v-121h-52v-106q0 -93 -66.5 -159.5t-160 -66.5t-160 66.5t-66.5 159.5q0 52 22 98t61 77q-40 51 -40 115q0 76 53.5 130t129.5 54t130 -54t54 -130h-121q0 26 -18.5 44.5t-44 18.5t-44 -18.5t-18.5 -44.5t18.5 -44.5t43.5 -18.5zM372 226v106h-106
q-43 0 -74 -31t-31 -74.5t31 -74.5t74.5 -31t74.5 31t31 74z" />
    <glyph glyph-name="quotesingle" unicode="'" horiz-adv-x="200" 
d="M161 467h-121v313h121v-313z" />
    <glyph glyph-name="parenleft" unicode="(" horiz-adv-x="340" 
d="M216 630.5q-35 -35.5 -35 -84.5v-392q0 -50 35 -85t85 -35v-141q-108 0 -184.5 76.5t-76.5 184.5v392q0 108 76.5 184.5t184.5 76.5v-141q-50 0 -85 -35.5z" />
    <glyph glyph-name="parenright" unicode=")" horiz-adv-x="340" 
d="M224.5 730.5q76.5 -76.5 76.5 -184.5v-392q0 -108 -76.5 -184.5t-184.5 -76.5v141q50 0 85 35t35 85v392q0 49 -35 84.5t-85 35.5v141q108 0 184.5 -76.5z" />
    <glyph glyph-name="asterisk" unicode="*" horiz-adv-x="331" 
d="M291 608l-58 -34l58 -34l-33 -58l-59 34v-68h-67v68l-58 -34l-34 58l58 34l-58 34l34 58l58 -34v68h67v-68l59 34z" />
    <glyph glyph-name="plus" unicode="+" horiz-adv-x="399" 
d="M250 400h109v-101h-109v-109h-101v109h-109v101h109v109h101v-109z" />
    <glyph glyph-name="comma" unicode="," horiz-adv-x="209" 
d="M48 121h121v-168q0 -60 -43 -103t-103 -43h-13v121h13q10 0 17.5 7.5t7.5 17.5v168z" />
    <glyph glyph-name="hyphen" unicode="-" horiz-adv-x="399" 
d="M359 299h-319v101h319v-101z" />
    <glyph glyph-name="period" unicode="." horiz-adv-x="201" 
d="M161 0h-121v124h121v-124z" />
    <glyph glyph-name="slash" unicode="/" horiz-adv-x="461" 
d="M421 732l-246 -805l-135 41l246 806z" />
    <glyph glyph-name="zero" unicode="0" horiz-adv-x="487" 
d="M243.5 699q84.5 0 144 -59.5t59.5 -143.5v-292q0 -85 -59.5 -144.5t-144 -59.5t-144 59.5t-59.5 144.5v292q0 84 59.5 143.5t144 59.5zM326 204v292q1 22 -10 41.5t-31 30.5q-41 24 -83 0q-19 -11 -30 -30.5t-11 -41.5v-292q0 -34 24.5 -58t58.5 -24t58 24t24 58z" />
    <glyph glyph-name="one" unicode="1" horiz-adv-x="259" 
d="M100 700q49 -1 84 -35.5t35 -83.5v-581h-121v579h-58v121h60z" />
    <glyph glyph-name="two" unicode="2" horiz-adv-x="490" 
d="M282 238q-51 -41 -76.5 -67.5t-35.5 -49.5h262v-121h-392v60q0 31 5 61q11 59 48.5 105.5t114.5 106.5q75 59 98 91t23 70q0 35 -24.5 59.5t-59.5 24.5t-59.5 -24.5t-24.5 -59.5h-121q0 85 60 145t145 60t145 -60t60 -145q0 -42 -11 -77t-36.5 -66.5t-51.5 -55t-69 -57.5
z" />
    <glyph glyph-name="three" unicode="3" horiz-adv-x="490" 
d="M450 494q0 -84 -60 -144q50 -50 58.5 -119t-26 -129t-99 -86.5t-131.5 -8.5t-109.5 73.5t-42.5 124.5h121q0 -25 14 -46.5t37.5 -31t49 -4.5t43.5 23t23 43t-5 48.5t-31 37.5t-47 14h-44v121h44q26 0 47 14.5t31 38t5 48.5t-23 43t-43.5 23t-49 -5t-37.5 -31t-14 -47
h-121q0 85 60 145.5t145 60.5t145 -60.5t60 -145.5z" />
    <glyph glyph-name="four" unicode="4" horiz-adv-x="490" 
d="M329 699h121v-699h-121v307q-47 -21 -99 -17t-96 32t-69 74t-25 98v206h121v-206q0 -34 24.5 -59t59.5 -25t59.5 25t24.5 59v205z" />
    <glyph glyph-name="five" unicode="5" horiz-adv-x="487" 
d="M447 578h-286v-118h83q84 0 143.5 -59.5t59.5 -143.5v-50q1 -83 -56 -143t-140 -64h-7q-85 0 -144.5 59.5t-59.5 144.5h121q0 -35 24 -59t59 -24h3q33 1 56 26.5t23 59.5v50q0 34 -24 58t-58 24h-204v360h407v-121z" />
    <glyph glyph-name="six" unicode="6" horiz-adv-x="491" 
d="M245 410q85 0 145 -60t60 -144.5t-59.5 -145t-144.5 -60.5t-145 59.5t-61 144.5v292q0 55 27 102.5t74.5 75t102 27.5t102 -27.5t75 -75t26.5 -102.5h-121q0 34 -24 58t-58 24t-58.5 -24t-24.5 -58v-104q40 18 84 18zM245 121q35 0 59.5 24.5t24.5 59.5t-24.5 59.5
t-59.5 24.5t-59.5 -24.5t-24.5 -59.5t24.5 -59.5t59.5 -24.5z" />
    <glyph glyph-name="seven" unicode="7" horiz-adv-x="466" 
d="M40 699h386v-60q0 -31 -4 -61q-7 -45 -24.5 -94t-33 -78.5t-44.5 -79.5q-31 -56 -46.5 -86.5t-30.5 -81t-15 -98.5v-60h-121v60q0 48 8.5 92.5t27.5 89.5t32.5 71.5t39.5 71.5q24 42 36 65t27 59.5t21 68.5h-259v121z" />
    <glyph glyph-name="eight" unicode="8" horiz-adv-x="490" 
d="M450 494q0 -84 -60 -144q60 -60 60 -145t-60 -145t-145 -60t-145 60t-60 145t60 145q-49 49 -58 118t26 129.5t99 87t131.5 8.5t109.5 -73.5t42 -125.5zM329 205q0 35 -24.5 59.5t-59.5 24.5t-59.5 -24.5t-24.5 -59.5t24.5 -59.5t59.5 -24.5t59.5 24.5t24.5 59.5z
M161 494.5q0 -34.5 24.5 -59.5t59.5 -25t59.5 25t24.5 59.5t-24.5 59.5t-59.5 25t-59.5 -25t-24.5 -59.5z" />
    <glyph glyph-name="nine" unicode="9" horiz-adv-x="491" 
d="M451 496v-292q0 -85 -60 -144.5t-144 -59.5t-144 59.5t-60 144.5h121q0 -35 24.5 -59t58.5 -24t58.5 24t24.5 59v103q-62 -28 -129 -13t-111.5 66.5t-49 119.5t32 125.5t100.5 81.5t129.5 5t106.5 -73.5t42 -122.5zM245 410q35 0 60 24.5t25 59.5q0 26 -14.5 47t-38 31
t-48.5 5t-43 -23t-23 -43t4.5 -48.5t31 -38t46.5 -14.5z" />
    <glyph glyph-name="colon" unicode=":" horiz-adv-x="201" 
d="M161 0h-121v124h121v-124zM161 318h-121v123h121v-123z" />
    <glyph glyph-name="semicolon" unicode=";" horiz-adv-x="201" 
d="M40 121h121v-168q0 -60 -43 -103t-103 -43h-13v121h13q10 0 17.5 7.5t7.5 17.5v168zM160 318h-121v123h121v-123z" />
    <glyph glyph-name="less" unicode="&#x3c;" horiz-adv-x="383" 
d="M161 350q0 -3 2 -5l180 -180l-85 -86l-181 180q-37 38 -37 91t37 90l181 180l85 -85l-180 -181q-2 -1 -2 -4z" />
    <glyph glyph-name="equal" unicode="=" horiz-adv-x="399" 
d="M359 220h-319v100h319v-100zM359 379h-319v101h319v-101z" />
    <glyph glyph-name="greater" unicode="&#x3e;" horiz-adv-x="383" 
d="M306 440q37 -37 37 -90t-37 -91l-180 -180l-86 86l180 180q5 5 0 9l-180 181l86 85z" />
    <glyph glyph-name="question" unicode="?" horiz-adv-x="473" 
d="M225 -9h-141v144h141v-144zM365 703q48 -47 62.5 -112t-8 -128t-75.5 -104t-119 -48v-113h-141v254h119q30 0 54 18t32 47.5t-4 57.5t-38 43t-56 11t-51 -25l-100 99q67 68 162.5 68t162.5 -68z" />
    <glyph glyph-name="at" unicode="@" 
d="M508 547q40 -40 62.5 -92.5t22.5 -109.5v-2q0 -47 -34 -80.5t-81 -33.5q-46 0 -80 32q-34 -32 -82 -32q-50 0 -85.5 35.5t-35.5 85.5t35.5 85.5t85.5 35.5q25 0 47 -10v10h74v-128q0 -16 12 -28t29 -12t29 12t12 28v2q0 88 -63 149q-59 58 -140 58h-4q-82 -1 -140 -60.5
t-58 -141.5q0 -84 59.5 -143.5t142.5 -59.5h37v-74h-37q-114 0 -195 81t-81 196q0 112 79.5 193t191.5 83h5q111 0 192 -79zM316.5 303q19.5 0 33 13.5t13.5 33t-13.5 33.5t-33 14t-33.5 -14t-14 -33.5t14 -33t33.5 -13.5z" />
    <glyph glyph-name="A" unicode="A" horiz-adv-x="544" 
d="M272 700q96 -1 164 -69t68 -164v-466h-120v248h-223v-249h-121v467q0 96 68 164t164 69zM161 370h223v97q0 46 -33 79t-79 33t-78.5 -33t-32.5 -79v-97z" />
    <glyph glyph-name="B" unicode="B" horiz-adv-x="589" 
d="M449 382q59 -35 85 -99.5t8 -131t-73 -109t-125 -41.5h-271v578h-53v121h258q56 0 104.5 -29t75.5 -79t24.5 -106.5t-33.5 -103.5zM193 579v-169h85q22 0 42 11.5t31 30.5q24 43 0 85q-11 19 -31 30.5t-42 11.5h-85zM193 121h151q35 0 59.5 25t24.5 59.5t-24.5 59.5
t-59.5 25h-151v-169z" />
    <glyph glyph-name="C" unicode="C" horiz-adv-x="545" 
d="M272.5 122q46.5 0 79 33t32.5 79h121q0 -96 -68 -164.5t-164.5 -68.5t-164.5 68.5t-68 164.5v234q0 97 68 165t164.5 68t164.5 -68t68 -165h-121q0 47 -32.5 79.5t-79 32.5t-79 -32.5t-32.5 -79.5v-234q0 -46 32.5 -79t79 -33z" />
    <glyph glyph-name="D" unicode="D" horiz-adv-x="560" 
d="M296 700q92 -1 158 -66.5t66 -158.5v-251q0 -93 -66 -158.5t-158 -65.5h-223v579h-53v121h276zM399 224v251q0 43 -30.5 73.5t-72.5 30.5h-102v-458h102q42 0 72.5 30t30.5 73z" />
    <glyph glyph-name="E" unicode="E" horiz-adv-x="509" 
d="M245 579q-35 0 -59.5 -25t-24.5 -59.5t24.5 -59.5t59.5 -25h224v-121h-224q-44 0 -84 18v-102q0 -35 24.5 -59.5t59.5 -24.5h224v-121h-224q-85 0 -145 60t-60 145v289q0 85 60 145t145 61h224v-121h-224z" />
    <glyph glyph-name="F" unicode="F" horiz-adv-x="509" 
d="M245 579q-23 0 -42.5 -11.5t-30.5 -30.5q-25 -43 0 -85q11 -20 30.5 -31t42.5 -11h224v-121h-224q-44 0 -84 18v-307h-121v494q0 85 60 145t145 61h224v-121h-224z" />
    <glyph glyph-name="G" unicode="G" horiz-adv-x="545" 
d="M273 410h232v-177q0 -96 -68 -164t-164 -68t-164 68t-69 164v234q0 70 39 129t104.5 86t134.5 13t119 -64l-85 -85q-24 24 -57.5 30.5t-64.5 -6.5t-50 -41t-19 -62v-234q0 -47 32.5 -79.5t79 -32.5t79 32.5t32.5 79.5v56h-111v121z" />
    <glyph glyph-name="H" unicode="H" horiz-adv-x="545" 
d="M384 699h121v-699h-121v289h-223v-290h-121v700h121v-289h223v289z" />
    <glyph glyph-name="I" unicode="I" horiz-adv-x="306" 
d="M266 577h-53v-457h53v-121h-226v121h52v457h-52v121h52v1h121v-1h53v-121z" />
    <glyph glyph-name="J" unicode="J" horiz-adv-x="495" 
d="M237 699h218v-482q0 -90 -63.5 -154t-154 -64t-154 64t-63.5 154h121q0 -40 28 -68.5t68 -28.5t68.5 28.5t28.5 68.5v361h-97v121z" />
    <glyph glyph-name="K" unicode="K" horiz-adv-x="523" 
d="M483 510q0 -95 -69 -161q69 -65 69 -160v-189h-121v189q0 39 -26.5 68t-66.5 32h-7h-101v-290h-121v700h121v-289h101h7q40 3 66.5 32t26.5 68v189h121v-189z" />
    <glyph glyph-name="L" unicode="L" horiz-adv-x="484" 
d="M161 120h283v-121h-404v700h121v-579z" />
    <glyph glyph-name="M" unicode="M" horiz-adv-x="838" 
d="M588 700q87 0 148.5 -61.5t61.5 -148.5v-489h-121v489q0 37 -26 63t-63 26t-63.5 -26t-26.5 -63v-489h-120v489q0 37 -26.5 63t-63.5 26t-63 -26t-26 -63v-489h-121v577h-58v121h60q52 0 87 -37q63 44 140 37.5t131 -62.5q62 63 150 63z" />
    <glyph glyph-name="N" unicode="N" horiz-adv-x="562" 
d="M300 700q92 0 157 -65t65 -157v-477h-121v477q0 28 -13 51.5t-37 37.5t-51.5 14t-51 -14t-37 -37.5t-12.5 -51.5v-477h-121v577h-58v121h60q55 0 90 -41q58 42 130 42z" />
    <glyph glyph-name="O" unicode="O" horiz-adv-x="525" 
d="M263 701q96 -1 164 -69t68 -164v-234q0 -97 -68 -165t-164.5 -68t-164.5 68t-68 165v234q0 96 68 164t165 69zM374 234v234q0 46 -32.5 79t-79 33t-79 -33t-32.5 -79v-234q0 -47 32.5 -79.5t79 -32.5t79 32.5t32.5 79.5z" />
    <glyph glyph-name="P" unicode="P" horiz-adv-x="503" 
d="M278 701q85 0 145 -60.5t60 -145.5t-60 -145t-145 -60h-84v-289h-121v579h-53v121h258zM278 411q35 0 59.5 25t24.5 59.5t-24.5 59.5t-59.5 25h-84v-169h84z" />
    <glyph glyph-name="Q" unicode="Q" horiz-adv-x="560" 
d="M480 122h60v-121h-60q-51 0 -89 32q-54 -31 -116.5 -31.5t-117 30.5t-86 85t-31.5 117v234q0 96 68 164t164.5 68t164.5 -68t68 -164v-235q0 -59 -28 -111h3zM272 122q14 0 26 3l-81 82l86 85l79 -79q2 10 2 21v234q0 46 -32.5 78.5t-79 32.5t-79 -32.5t-32.5 -78.5v-235
q0 -46 32.5 -78.5t78.5 -32.5z" />
    <glyph glyph-name="R" unicode="R" horiz-adv-x="523" 
d="M483 496q0 -85 -60 -145q60 -60 59 -144v-206h-120v206q0 34 -24 58t-57 26h-88v-290h-120v579h-53v121h258q84 -1 144 -61t61 -144zM278 412h3q34 1 57.5 26t23 59t-25 58.5t-58.5 24.5h-85v-168h85z" />
    <glyph glyph-name="S" unicode="S" horiz-adv-x="505" 
d="M273 418q58 -21 99 -49t60.5 -59t26.5 -59t6 -58q-4 -82 -64.5 -137.5t-147.5 -55.5q-42 0 -77 11.5t-56.5 26.5t-39 35.5t-24.5 34t-12 26.5l115 44q21 -55 94 -55q37 0 62 21.5t27 54.5q0 10 -1.5 18t-10 23.5t-33.5 31.5t-64 29q-59 20 -100 48t-60 59t-26.5 59.5
t-6.5 57.5q4 83 64.5 138.5t148.5 55.5q41 0 76 -11.5t56.5 -27t39 -36t24.5 -34t12 -26.5l-115 -43q-21 54 -93 54q-38 0 -63 -21t-27 -54q0 -10 2 -18t10.5 -24t33 -31.5t64.5 -28.5z" />
    <glyph glyph-name="T" unicode="T" horiz-adv-x="444" 
d="M20 701h404v-121h-141v-579h-121v579h-142v121z" />
    <glyph glyph-name="U" unicode="U" horiz-adv-x="554" 
d="M482 122h52v-121h-60q-53 0 -86 40q-51 -36 -112.5 -40t-116.5 24.5t-87 81.5t-32 115v478h121v-478q0 -41 29.5 -70t70.5 -29t70.5 29t29.5 70v478h121v-578z" />
    <glyph glyph-name="V" unicode="V" horiz-adv-x="592" 
d="M455 700h127l-222 -699h-127l-223 699h127l159 -500z" />
    <glyph glyph-name="W" unicode="W" horiz-adv-x="798" 
d="M638 700h120v-489q0 -64 -35.5 -117t-94.5 -77.5t-121.5 -11.5t-107.5 58q-45 -45 -107.5 -58t-121.5 11.5t-94.5 77.5t-35.5 117v489h121v-489q0 -37 26 -63t63 -26t63 26t26 63v489h121v-489q0 -37 26 -63t62.5 -26t63 26t26.5 63v489z" />
    <glyph glyph-name="X" unicode="X" horiz-adv-x="522" 
d="M482 511q0 -95 -69 -160q69 -66 69 -161v-189h-121v189q0 41 -29.5 70t-70.5 29t-70.5 -29t-29.5 -70v-189h-121v189q0 95 69 161q-69 65 -69 160v189h121v-189q0 -27 13 -50.5t36.5 -37t50.5 -13.5t50.5 13.5t36.5 37t13 50.5v189h121v-189z" />
    <glyph glyph-name="Y" unicode="Y" horiz-adv-x="522" 
d="M361 700h121v-189q0 -74 -44.5 -133t-115.5 -80v-297h-121v297q-72 21 -116.5 80t-44.5 133v189h121v-189q0 -41 29.5 -70.5t71 -29.5t70.5 29.5t29 70.5v189z" />
    <glyph glyph-name="Z" unicode="Z" horiz-adv-x="511" 
d="M61 700h410v-97q0 -12 -2 -24q-4 -31 -18.5 -64t-43 -73t-49 -66t-61.5 -74q-112 -132 -130 -180h283v-121h-410v97q0 12 2 24q4 29 18 59.5t40.5 67.5t46 61.5t58 70t59.5 71.5t47 64.5t35 62.5h-285v121z" />
    <glyph glyph-name="bracketleft" unicode="[" horiz-adv-x="311" 
d="M187 660q-6 -6 -6 -14v-592q0 -8 6 -14t14 -6h71v-141h-71q-67 0 -114 47t-47 114v592q0 66 47 113.5t114 47.5h71v-141h-71q-8 0 -14 -6z" />
    <glyph glyph-name="backslash" unicode="\" horiz-adv-x="461" 
d="M422 -32l-135 -42l-247 806l135 41z" />
    <glyph glyph-name="bracketright" unicode="]" horiz-adv-x="311" 
d="M224.5 759.5q47.5 -47.5 47.5 -113.5v-592q0 -67 -47.5 -114t-113.5 -47h-71v141h71q8 0 13.5 6t5.5 14v592q0 8 -5.5 14t-13.5 6h-71v141h71q66 0 113.5 -47.5z" />
    <glyph glyph-name="underscore" unicode="_" horiz-adv-x="533" 
d="M494 0h-454v101h454v-101z" />
    <glyph glyph-name="a" unicode="a" horiz-adv-x="510" 
d="M349 440h121v-440h-121v24q-69 -35 -145 -19t-125 76.5t-49 138.5t49 138.5t125 77t145 -19.5v24zM250 121q41 0 70 29t29 70t-29 70t-70 29t-70 -29t-29 -70t29 -70t70 -29z" />
    <glyph glyph-name="b" unicode="b" horiz-adv-x="510" 
d="M260 440q68 0 124.5 -38.5t81 -102t8.5 -130t-66.5 -112.5t-118 -55t-128.5 22v-24h-121v700h121v-284q47 24 99 24zM260 121q41 0 70 29t29 70t-29 70t-70 29t-70 -29t-29 -70t29 -70t70 -29z" />
    <glyph glyph-name="c" unicode="c" horiz-adv-x="421" 
d="M250 122q41 0 70 29l86 -85q-65 -65 -156 -65t-155.5 64.5t-64.5 156t64.5 156t155.5 64.5t156 -65l-86 -85q-24 23 -57 27.5t-62.5 -12.5t-42 -48t-4 -63.5t35 -53t60.5 -20.5z" />
    <glyph glyph-name="d" unicode="d" horiz-adv-x="510" 
d="M349 700h121v-700h-121v24q-69 -35 -145 -19t-125 76.5t-49 138.5t49 138.5t125 77t145 -19.5v284zM250 121q41 0 70 29t29 70t-29 70t-70 29t-70 -29t-29 -70t29 -70t70 -29z" />
    <glyph glyph-name="e" unicode="e" horiz-adv-x="497" 
d="M254 123q55 0 100 39l79 -92q-83 -70 -176 -70q-52 -1 -99.5 21.5t-80.5 63.5q-13 15 -22 33v1q-13 24 -19 50v1q-18 77 17 147.5t107 103t148 12t121 -85.5h1l4 -7l3 -4q3 -5 6 -9l2 -4q3 -7 6 -13v-1h1v-1v-1l1 -1l24 -56l-122 -51l-17 -7l-135 -55q24 -15 51 -14z
M157 235l5 2l71 29l75 31l-2 2q-26 20 -59 20q-17 0 -34 -7q-23 -11 -38 -31.5t-18 -45.5z" />
    <glyph glyph-name="f" unicode="f" horiz-adv-x="249" 
d="M234 578h-58v-138h58v-121h-58v-319h-121v319h-35v121h35v141q0 49 34.5 83.5t83.5 34.5h61v-121z" />
    <glyph glyph-name="g" unicode="g" horiz-adv-x="558" 
d="M468 440h60v-121h-58v-99q0 -91 -64.5 -155.5t-155.5 -64.5h-80q-8 0 -13.5 -5.5t-5.5 -13.5t5.5 -13.5t13.5 -5.5h160q58 0 99 -41t41 -99t-41 -99t-99 -41h-140v121h140q8 0 13.5 5.5t5.5 13.5t-5.5 13.5t-13.5 5.5h-160q-43 0 -79 24.5t-51.5 65t-5.5 83t42 71.5
q-50 65 -45.5 146.5t61 141t138 67t148.5 -40.5l6 6q34 35 84 35zM250 319q-41 0 -70 -29t-29 -70q0 -30 16.5 -55t44.5 -36.5t57.5 -5.5t50.5 27t27 50.5t-5.5 57.5t-36.5 44.5t-55 16.5z" />
    <glyph glyph-name="h" unicode="h" horiz-adv-x="470" 
d="M235 440q81 -1 138 -58t57 -138v-245h-121v245q0 31 -21.5 53t-52.5 22t-52.5 -22t-21.5 -53v-245h-121v700h121v-274q36 15 74 15z" />
    <glyph glyph-name="i" unicode="i" horiz-adv-x="201" 
d="M161 0h-121v440h121v-440zM161 570h-121v128h121v-128z" />
    <glyph glyph-name="j" unicode="j" horiz-adv-x="209" 
d="M48 -119v559h121v-562q0 -49 -35 -83.5t-84 -34.5h-60v121h58zM169 571h-121v128h121v-128z" />
    <glyph glyph-name="k" unicode="k" horiz-adv-x="437" 
d="M397 440v-61q0 -67 -45 -118q45 -50 45 -118v-144h-121v144q1 34 -28 50.5t-58 0t-29 -50.5v-144h-121v701h121v-388q28 10 58 10q24 0 40.5 16.5t16.5 40.5v61h121z" />
    <glyph glyph-name="l" unicode="l" horiz-adv-x="201" 
d="M161 -1h-121v700h121v-700z" />
    <glyph glyph-name="m" unicode="m" horiz-adv-x="732" 
d="M499 440q80 0 136.5 -56.5t56.5 -136.5v-247h-120v247q0 30 -21.5 51t-51.5 21t-51 -21t-21 -51v-247h-121v247q0 30 -21.5 51t-51.5 21t-51 -21t-21 -51v-247h-121v440h121v-14q53 22 108.5 11t96.5 -50q56 53 133 53z" />
    <glyph glyph-name="n" unicode="n" horiz-adv-x="467" 
d="M233 440q80 0 137 -56.5t57 -136.5v-247h-121v247q0 30 -21.5 51t-51.5 21t-51 -21t-21 -51v-247h-121v440h121v-14q35 14 72 14z" />
    <glyph glyph-name="o" unicode="o" horiz-adv-x="500" 
d="M250 440q91 0 155.5 -64.5t64.5 -155.5q0 -66 -37 -121.5t-98.5 -81.5t-127 -12.5t-113 60.5t-60.5 112.5t12.5 127t81 98.5t122.5 37zM250 121q41 0 70 29t29 70q0 30 -16.5 55t-44.5 36.5t-57.5 6t-50.5 -27t-27 -51t5.5 -57t36.5 -44.5t55 -17z" />
    <glyph glyph-name="p" unicode="p" horiz-adv-x="510" 
d="M260 440q68 0 124.5 -38.5t81 -102t8.5 -130t-66.5 -112.5t-118 -55t-128.5 22v-283h-121v699h121v-23q47 23 99 23zM260 121q41 0 70 29t29 70q0 30 -16.5 55t-44.5 36.5t-57.5 6t-50.5 -27t-27 -51t5.5 -57t36.5 -44.5t55 -17z" />
    <glyph glyph-name="q" unicode="q" horiz-adv-x="510" 
d="M349 440h121v-699h-121v283q-69 -35 -145 -18.5t-125 77t-49 138t49 138t125 77t145 -18.5v23zM250 121q41 0 70 29t29 70q0 30 -16.5 55t-44.5 36.5t-57.5 6t-50.5 -27t-27 -51t5.5 -57t36.5 -44.5t55 -17z" />
    <glyph glyph-name="r" unicode="r" horiz-adv-x="340" 
d="M204 440q68 1 116 -48l-86 -85q-20 20 -46.5 9t-26.5 -39v-277h-121v440h121v-5q21 5 43 5z" />
    <glyph glyph-name="s" unicode="s" horiz-adv-x="403" 
d="M337 240q30 -30 38 -71.5t-8 -80.5t-50.5 -63t-77.5 -25h-173v121h171q8 0 14 6t6 14t-6 13.5t-14 5.5h-72q-58 0 -99 41t-41 99t41 99t99 41h172v-121h-172q-8 0 -13.5 -5.5t-5.5 -13.5t5.5 -13.5t13.5 -5.5h72q59 0 100 -41z" />
    <glyph glyph-name="t" unicode="t" horiz-adv-x="264" 
d="M234 319h-58v-198h58v-121h-61q-49 0 -83.5 35t-34.5 84v200h-35v121h35v260h121v-260h58v-121z" />
    <glyph glyph-name="u" unicode="u" horiz-adv-x="467" 
d="M306 440h121v-440h-121v14q-45 -18 -93 -13t-88 32t-62.5 69.5t-22.5 90.5v247h121v-247q0 -30 21 -51t51 -21t51.5 21t21.5 51v247z" />
    <glyph glyph-name="v" unicode="v" horiz-adv-x="515" 
d="M374 440h131l-182 -440h-131l-182 440h131l117 -282z" />
    <glyph glyph-name="w" unicode="w" horiz-adv-x="732" 
d="M572 440h120v-247q0 -58 -31.5 -106t-85 -71t-110.5 -13t-99 50q-42 -40 -99 -50t-110 13t-85 71t-32 106v247h121v-247q0 -30 21 -51t51 -21t51.5 21t21.5 51v247h121v-247q-1 -42 35.5 -63t73 0t36.5 63v247z" />
    <glyph glyph-name="x" unicode="x" horiz-adv-x="440" 
d="M400 440v-100q0 -69 -45 -120q45 -51 45 -120v-100h-121v100q0 25 -17 42.5t-41.5 17.5t-42 -17.5t-17.5 -42.5v-100h-121v100q0 69 46 120q-46 51 -46 120v100h121v-100q0 -25 17.5 -42t42 -17t41.5 17t17 42v100h121z" />
    <glyph glyph-name="y" unicode="y" horiz-adv-x="467" 
d="M306 440h121v-539q0 -80 -57 -136.5t-137 -56.5t-136.5 56.5t-56.5 136.5h121q0 -30 21 -51t51 -21t51.5 21t21.5 51v113q-45 -18 -93 -13t-88 32t-62.5 69.5t-22.5 90.5v247h121v-247q0 -30 21 -51t51 -21t51.5 21t21.5 51v247z" />
    <glyph glyph-name="z" unicode="z" horiz-adv-x="453" 
d="M292 440h121v-60q0 -31 -11 -61q-8 -24 -23 -46t-38 -41.5t-38 -31t-43 -29.5q-34 -23 -66 -50h207v-121h-361v61q0 31 10 60q9 25 24 47t37.5 41.5t38 31t43.5 30.5q34 22 65 48h-206v121h240z" />
    <glyph glyph-name="braceleft" unicode="{" horiz-adv-x="402" 
d="M272 646v-206q0 -50 -28 -90q28 -41 28 -91v-205q0 -8 5.5 -14t13.5 -6h71v-141h-71q-66 0 -113.5 47t-47.5 114v205q0 9 -5.5 14.5t-13.5 5.5h-71v141h71q8 0 13.5 6t5.5 14v206q0 66 47.5 113.5t113.5 47.5h71v-141h-71q-8 0 -13.5 -6t-5.5 -14z" />
    <glyph glyph-name="verticalbar" unicode="|" horiz-adv-x="200" 
d="M161 -114h-121v927h121v-927z" />
    <glyph glyph-name="braceright" unicode="}" horiz-adv-x="402" 
d="M291 420h71v-141h-71q-8 0 -13.5 -5.5t-5.5 -14.5v-205q0 -67 -47.5 -114t-113.5 -47h-71v141h71q8 0 13.5 6t5.5 14v205q0 50 28 91q-28 40 -28 90v206q0 8 -5.5 14t-13.5 6h-71v141h71q66 0 113.5 -47.5t47.5 -113.5v-206q0 -8 5.5 -14t13.5 -6z" />
    <glyph glyph-name="nonbreakingspace" unicode="&#xa0;" horiz-adv-x="287" 
 />
    <glyph glyph-name="exclamdown" unicode="&#xa1;" horiz-adv-x="221" 
d="M181 467h-141v143h141v-143zM181 -169h-141v580h141v-580z" />
    <glyph glyph-name="cent" unicode="&#xa2;" horiz-adv-x="441" 
d="M316 285l86 -85q-41 -41 -96 -55v-51h-108v51q-55 14 -96 55q-62 62 -62 150t62 150q41 40 96 55v51h108v-51q55 -15 96 -55l-86 -86q-4 4 -10 9q-24 18 -54 18t-54 -18q-6 -5 -10 -9q-27 -27 -27 -64.5t27 -64.5q4 -4 10 -8q24 -18 54 -18t54 18q6 4 10 8z" />
    <glyph glyph-name="sterling" unicode="&#xa3;" horiz-adv-x="487" 
d="M213 296v-175h235v-121h-408v121h52v175h-45v108h45v94q0 84 59 143t142.5 59t142.5 -59l-85 -86q-24 24 -57 24t-57 -24t-24 -57v-94h187v-108h-187z" />
    <glyph glyph-name="yen" unicode="&#xa5;" horiz-adv-x="522" 
d="M482 510q0 -72 -42 -129.5t-108 -79.5h88v-87h-98v-39h98v-87h-98v-88h-121v88h-99v87h99v39h-99v87h88q-66 22 -108 79.5t-42 129.5v190h121v-190q0 -49 40 -79q26 -21 60 -21t61 21q39 30 39 79v190h121v-190z" />
    <glyph glyph-name="section" unicode="&#xa7;" horiz-adv-x="468" 
d="M283 499q77 -25 115 -74.5t29 -112.5l-1 -2q-12 -74 -80 -109q22 -42 14 -92v-1q-8 -51 -46.5 -85.5t-93.5 -41.5q-11 -1 -21 -1q-52 0 -94.5 27.5t-60.5 73.5l93 38q15 -38 62 -38q5 0 10 1q8 0 17 3t20.5 13.5t14.5 26.5q5 35 -40 60q-5 3 -11 6q-11 4 -21 9l-3 1
q-78 25 -116 74.5t-28 112.5v1q12 75 81 110q-23 42 -15 92q9 52 47 86.5t94 40.5q10 1 21 1q52 0 94 -27t61 -74l-94 -37q-15 38 -62 38q-4 0 -9 -1q-9 -1 -17.5 -3.5t-20.5 -13t-14 -26.5v-1q-6 -36 41 -61q5 -2 10 -5q10 -3 21 -8zM142 373q-8 -50 75 -76l12 -4v-1l16 -6
q10 -3 21 -3q18 0 33 7q24 12 28 37q8 49 -75 76q-5 1 -11 3l-1 1q-9 3 -17 7q-10 2 -20 2q-18 0 -33 -7q-24 -11 -28 -36z" />
    <glyph glyph-name="copyright" unicode="&#xa9;" horiz-adv-x="550" 
d="M275.5 585q97.5 0 166.5 -69t69 -166.5t-69 -166.5t-166.5 -69t-166.5 69t-69 166.5t69 166.5t166.5 69zM275.5 182q69.5 0 118.5 49t49 118.5t-49 118.5t-118.5 49t-118.5 -49t-49 -118.5t49 -118.5t118.5 -49zM278 394q-18 0 -31 -13t-13 -31.5t13 -31.5t31 -13t31 13
l38 -37q-29 -28 -69 -28t-68.5 28.5t-28.5 68.5t28.5 68.5t68.5 28.5t69 -29l-38 -37q-13 13 -31 13z" />
    <glyph glyph-name="ordfeminine" unicode="&#xaa;" horiz-adv-x="399" 
d="M279 730h80v-320h-80v21q-37 -21 -79 -21q-66 0 -113 47t-47 113t47 113t113 47q42 0 79 -21v21zM199.5 491q32.5 0 56 23t23.5 56t-23.5 56t-56 23t-55.5 -23t-23 -56t23 -56t55.5 -23z" />
    <glyph glyph-name="guillemotleft" unicode="&#xab;" horiz-adv-x="675" 
d="M635 535l-185 -185l185 -185l-85 -86l-228 228q-18 18 -18 43t18 43l228 227zM371 535l-185 -185l185 -185l-85 -86l-228 228q-18 18 -18 43t18 43l228 227z" />
    <glyph glyph-name="softhyphen" unicode="&#xad;" horiz-adv-x="0" 
 />
    <glyph glyph-name="registered" unicode="&#xae;" horiz-adv-x="429" 
d="M215 700q72 0 123.5 -51.5t51.5 -124t-51.5 -123.5t-123.5 -51t-123.5 51t-51.5 123.5t51.5 124t123.5 51.5zM215 405q49 0 84 35t35 84.5t-35 84.5t-84 35t-84 -35t-35 -84.5t35 -84.5t84 -35zM221 596q18 0 30.5 -13t12.5 -31q0 -17 -12 -30q12 -12 12 -29v-39h-26v39
q0 6 -5 11t-12 5h-17v-55h-26v142h43zM221 535q7 0 12 5t5 12t-5 12t-12 5h-17v-34h17z" />
    <glyph glyph-name="degree" unicode="&#xb0;" horiz-adv-x="327" 
d="M164 786q51 0 87.5 -36.5t36.5 -87.5t-36.5 -87.5t-87.5 -36.5t-87.5 36.5t-36.5 87.5t36.5 87.5t87.5 36.5zM164 625q15 0 26 11t11 26t-11 26t-26 11t-26 -11t-11 -26t11 -26t26 -11z" />
    <glyph glyph-name="twosuperior" unicode="&#xb2;" horiz-adv-x="279" 
d="M165 510q-15 -12 -23 -19h93v-81h-195v41q0 21 7 40q6 18 19 35t23 25.5t27 22.5q25 19 34 30t9 26q0 8 -5.5 13.5t-13.5 5.5t-13.5 -5.5t-5.5 -13.5h-81q0 41 29.5 70.5t70.5 29.5t70.5 -29.5t29.5 -70.5q0 -22 -6.5 -41t-20 -34.5t-22.5 -23.5t-26 -21z" />
    <glyph glyph-name="threesuperior" unicode="&#xb3;" horiz-adv-x="279" 
d="M240 630q0 -33 -20 -60q20 -27 20 -60q0 -41 -29.5 -70.5t-70.5 -29.5t-70.5 29.5t-29.5 70.5h81q0 -8 5.5 -13.5t13.5 -5.5t13.5 5.5t5.5 13.5t-5.5 14t-13.5 6h-26v80h26q8 0 13.5 6t5.5 14t-5.5 13.5t-13.5 5.5t-13.5 -5.5t-5.5 -13.5h-81q0 41 29.5 70.5t70.5 29.5
t70.5 -29.5t29.5 -70.5z" />
    <glyph glyph-name="periodcentered" unicode="&#xb7;" horiz-adv-x="201" 
d="M100.5 289q-25.5 0 -43 18t-17.5 43t17.5 42.5t43 17.5t43 -17.5t17.5 -42.5t-17.5 -43t-43 -18z" />
    <glyph glyph-name="onesuperior" unicode="&#xb9;" horiz-adv-x="194" 
d="M80 730q31 0 53 -22t22 -53v-245h-81v239h-34v81h40z" />
    <glyph glyph-name="ordmasculine" unicode="&#xba;" horiz-adv-x="319" 
d="M159.5 730q49.5 0 84.5 -35.5t35 -84.5v-80q0 -49 -35 -84.5t-84.5 -35.5t-84.5 35.5t-35 84.5v80q0 49 35 84.5t84.5 35.5zM199 530v80q0 16 -11.5 27.5t-28 11.5t-27.5 -11.5t-11 -27.5v-80q0 -16 11 -27.5t27.5 -11.5t28 11.5t11.5 27.5z" />
    <glyph glyph-name="guillemotright" unicode="&#xbb;" horiz-adv-x="675" 
d="M371 350q0 -25 -18 -43l-227 -228l-86 86l185 185l-185 185l86 85l227 -227q18 -18 18 -43zM618 393q17 -18 17 -43t-17 -43l-228 -228l-86 86l185 185l-185 185l86 85z" />
    <glyph glyph-name="questiondown" unicode="&#xbf;" horiz-adv-x="472" 
d="M389 467h-141v143h141v-143zM333 -2l100 -100q-68 -67 -163 -67t-162.5 67.5t-67.5 162.5t67 163q59 58 141 66v114h141v-254h-119q-37 0 -63 -26t-26 -63t26 -63t63 -26t63 26z" />
    <glyph glyph-name="Agrave" unicode="&#xc0;" horiz-adv-x="544" 
d="M365 847l-76 -76l-137 137l76 76zM272 700q96 0 164 -68.5t68 -164.5v-466h-121v263q-51 -29 -110.5 -29t-111.5 29v-264h-121v467q0 96 68 164.5t164 68.5zM272 356q46 0 78.5 32.5t32.5 78.5t-32.5 79t-78.5 33t-78.5 -33t-32.5 -79t32.5 -78.5t78.5 -32.5z" />
    <glyph glyph-name="Aacute" unicode="&#xc1;" horiz-adv-x="544" 
d="M392 908l-137 -137l-76 76l137 137zM272 700q96 0 164 -68.5t68 -164.5v-466h-120v263q-52 -29 -111.5 -29t-111.5 29v-264h-121v467q0 96 68 164.5t164 68.5zM272 356q46 0 79 32.5t33 78.5t-33 79t-79 33t-78.5 -33t-32.5 -79t32.5 -78.5t78.5 -32.5z" />
    <glyph glyph-name="Acircumflex" unicode="&#xc2;" horiz-adv-x="544" 
d="M269 831l-57 -57l-76 76l57 57q33 33 79.5 33t78.5 -33l57 -57l-76 -76l-57 57q-3 3 -6 0zM272 700q96 0 164 -68.5t68 -164.5v-466h-121v263q-51 -29 -110.5 -29t-111.5 29v-264h-121v467q0 96 68 164.5t164 68.5zM272 356q46 0 79 32.5t33 78.5t-33 79t-79 33
t-78.5 -33t-32.5 -79t32.5 -78.5t78.5 -32.5z" />
    <glyph glyph-name="Atilde" unicode="&#xc3;" horiz-adv-x="544" 
d="M187 821l-21 -27l-86 65l20 25q36 53 89.5 63.5t113.5 -24.5q14 -9 21.5 -11.5t18 0.5t20.5 17l1 3l21 27l86 -65l-20 -25q-36 -53 -89.5 -63.5t-113.5 24.5q-14 9 -21.5 11.5t-18 -0.5t-20.5 -18zM272 700q96 0 164 -68.5t68 -164.5v-466h-121v263q-51 -29 -110.5 -29
t-111.5 29v-264h-121v467q0 96 68 164.5t164 68.5zM272 356q46 0 78.5 32.5t32.5 78.5t-32.5 79t-78.5 33t-78.5 -33t-32.5 -79t32.5 -78.5t78.5 -32.5z" />
    <glyph glyph-name="Adieresis" unicode="&#xc4;" horiz-adv-x="544" 
d="M176.5 812q-26.5 0 -45.5 19t-19 45.5t19 45.5t45.5 19t45.5 -19t19 -45.5t-19 -45.5t-45.5 -19zM368.5 812q-26.5 0 -45.5 19t-19 45.5t19 45.5t45.5 19t45 -19t18.5 -45.5t-18.5 -45.5t-45 -19zM272 700q96 0 164 -68.5t68 -164.5v-466h-121v263q-51 -29 -110.5 -29
t-111.5 29v-264h-121v467q0 96 68 164.5t164 68.5zM272 356q46 0 78.5 32.5t32.5 78.5t-32.5 79t-78.5 33t-78.5 -33t-32.5 -79t32.5 -78.5t78.5 -32.5z" />
    <glyph glyph-name="Aring" unicode="&#xc5;" horiz-adv-x="544" 
d="M272.5 797q-44.5 0 -76 31.5t-31.5 76t31.5 76t76 31.5t76 -31.5t31.5 -76t-31.5 -76t-76 -31.5zM253 923q-8 -8 -8 -19t8 -19t19 -8t19 8t8 19t-8 19t-19 8t-19 -8zM272 700q96 0 164 -68.5t68 -164.5v-466h-121v263q-51 -29 -110.5 -29t-111.5 29v-264h-121v467
q0 96 68 164.5t164 68.5zM272 356q46 0 78.5 32.5t32.5 78.5t-32.5 79t-78.5 33t-78.5 -33t-32.5 -79t32.5 -78.5t78.5 -32.5z" />
    <glyph glyph-name="AE" unicode="&#xc6;" horiz-adv-x="852" 
d="M589 579q-35 0 -60 -25t-25 -59.5t25 -59.5t60 -25h223v-121h-223q-45 0 -85 18v-102q0 -35 25 -59.5t60 -24.5h223v-121h-223q-85 0 -145.5 60t-60.5 145v59q-51 -29 -110.5 -29t-111.5 29v-264h-121v467q0 96 68 164.5t164 68.5t164 -68q61 68 153 68h223v-121h-223z
M272 356q46 0 79 32.5t33 78.5t-33 79t-79 33t-78.5 -33t-32.5 -79t32.5 -78.5t78.5 -32.5z" />
    <glyph glyph-name="Ccedilla" unicode="&#xc7;" horiz-adv-x="545" 
d="M325 134q27 14 43 40.5t16 58.5h121q0 -82 -51 -145.5t-129 -81.5v-31q44 -6 74 -39t30 -78v-18q0 -48 -35 -83t-84 -35h-87v103h87q7 0 11.5 4.5t4.5 10.5v18q0 6 -4.5 10.5t-11.5 4.5h-87v132q-79 18 -131 81.5t-52 146.5v234q0 96 68 164.5t164.5 68.5t164.5 -68.5
t68 -164.5h-121q0 46 -32.5 79t-79 33t-79 -33t-32.5 -79v-234q0 -33 17 -59.5t44 -40.5q24 -12 51 -12t52 13z" />
    <glyph glyph-name="Egrave" unicode="&#xc8;" horiz-adv-x="508" 
d="M395 847l-77 -76l-136 137l76 76zM245 579q-35 0 -59.5 -24.5t-24.5 -59.5t24.5 -59.5t59.5 -24.5h224v-121h-224q-44 0 -84 18v-102q0 -35 24.5 -59.5t59.5 -24.5h224v-121h-224q-85 0 -145 60t-60 145v289q0 85 60 145t145 60h224v-121h-224z" />
    <glyph glyph-name="Eacute" unicode="&#xc9;" horiz-adv-x="508" 
d="M394 908l-137 -137l-76 76l137 137zM245 579q-35 0 -59.5 -24.5t-24.5 -59.5t24.5 -59.5t59.5 -24.5h224v-121h-224q-44 0 -84 18v-102q0 -35 24.5 -59.5t59.5 -24.5h224v-121h-224q-85 0 -145 60t-60 145v289q0 85 60 145t145 60h224v-121h-224z" />
    <glyph glyph-name="Ecircumflex" unicode="&#xca;" horiz-adv-x="508" 
d="M285 831l-57 -57l-76 76l57 57q33 33 79 33t79 -33l57 -57l-76 -76l-57 57q-3 3 -6 0zM245 579q-35 0 -59.5 -24.5t-24.5 -59.5t24.5 -59.5t59.5 -24.5h224v-121h-224q-44 0 -84 18v-102q0 -35 24.5 -59.5t59.5 -24.5h224v-121h-224q-85 0 -145 60t-60 145v289
q0 85 60 145t145 60h224v-121h-224z" />
    <glyph glyph-name="Edieresis" unicode="&#xcb;" horiz-adv-x="508" 
d="M192 812q-27 0 -45.5 19t-18.5 45.5t18.5 45.5t45.5 19t45.5 -19t18.5 -45.5t-18.5 -45.5t-45.5 -19zM384 812q-27 0 -45.5 19t-18.5 45.5t18.5 45.5t45.5 19t45.5 -19t18.5 -45.5t-18.5 -45.5t-45.5 -19zM245 579q-35 0 -59.5 -24.5t-24.5 -59.5t24.5 -59.5t59.5 -24.5
h224v-121h-224q-44 0 -84 18v-102q0 -35 24.5 -59.5t59.5 -24.5h224v-121h-224q-85 0 -145 60t-60 145v289q0 85 60 145t145 60h224v-121h-224z" />
    <glyph glyph-name="Igrave" unicode="&#xcc;" horiz-adv-x="312" 
d="M253 847l-76 -76l-137 137l76 76zM273 579h-53v-457h53v-121h-61q-28 0 -52 13q-25 -13 -53 -13h-60v121h52v457h-52v121h60q28 0 53 -13q24 13 52 13h61v-121z" />
    <glyph glyph-name="Iacute" unicode="&#xcd;" horiz-adv-x="312" 
d="M273 908l-137 -137l-76 76l137 137zM153 687q24 13 52 13h61v-121h-53v-457h53v-121h-61q-28 0 -52 13q-25 -13 -53 -13h-60v121h52v457h-52v120h60q28 0 53 -12z" />
    <glyph glyph-name="Icircumflex" unicode="&#xce;" horiz-adv-x="351" 
d="M173 831l-57 -57l-76 76l57 57q33 33 79 33t79 -33l57 -57l-76 -76l-57 57q-3 3 -6 0zM176 687q25 13 52 13h61v-121h-53v-457h53v-121h-61q-27 0 -52 13q-25 -13 -52 -13h-61v121h52v457h-52v121h61q27 0 52 -13z" />
    <glyph glyph-name="Idieresis" unicode="&#xcf;" horiz-adv-x="400" 
d="M104.5 812q-26.5 0 -45.5 19t-19 45.5t19 45.5t45.5 19t45.5 -19t19 -45.5t-19 -45.5t-45.5 -19zM296.5 812q-26.5 0 -45.5 19t-19 45.5t19 45.5t45.5 19t45.5 -19t19 -45.5t-19 -45.5t-45.5 -19zM200 687q25 12 53 12h60v-120h-52v-457h52v-121h-60q-28 0 -53 13
q-24 -13 -52 -13h-61v121h53v457h-53v120h61q28 0 52 -12z" />
    <glyph glyph-name="Ntilde" unicode="&#xd1;" horiz-adv-x="581" 
d="M217 821l-20 -27l-86 65l20 25q44 66 113 66q44 0 90 -27q22 -13 32 -13q15 0 27 19l2 3l20 27l86 -65l-19 -25q-44 -66 -114 -66q-43 0 -89 27q-22 13 -32 13q-15 0 -28 -20zM320 700q92 0 157 -65t65 -157v-477h-121v477q0 42 -29.5 71.5t-71.5 29.5t-71.5 -29.5
t-29.5 -71.5v-477h-121v577h-58v121h60q54 0 90 -41q58 42 130 42z" />
    <glyph glyph-name="Ograve" unicode="&#xd2;" horiz-adv-x="545" 
d="M352 847l-76 -76l-137 136l76 76zM272.5 700q96.5 0 164.5 -68t68 -164v-235q0 -96 -68 -164t-164.5 -68t-164.5 68t-68 164v235q0 96 68 164t164.5 68zM384 233v235q0 46 -32.5 78.5t-79 32.5t-79 -32.5t-32.5 -78.5v-235q0 -46 32.5 -78.5t79 -32.5t79 32.5t32.5 78.5z
" />
    <glyph glyph-name="Oacute" unicode="&#xd3;" horiz-adv-x="545" 
d="M406 908l-137 -137l-76 76l137 137zM272.5 700q96.5 0 164.5 -68t68 -164v-235q0 -96 -68 -164t-164.5 -68t-164.5 68t-68 164v235q0 96 68 164t164.5 68zM384 233v235q0 46 -32.5 78.5t-79 32.5t-79 -32.5t-32.5 -78.5v-235q0 -46 32.5 -78.5t79 -32.5t79 32.5
t32.5 78.5z" />
    <glyph glyph-name="Ocircumflex" unicode="&#xd4;" horiz-adv-x="545" 
d="M270 831l-57 -57l-76 76l57 57q32 33 78.5 33t79.5 -33l57 -57l-76 -76l-57 57q-3 3 -6 0zM272.5 700q96.5 0 164.5 -68t68 -164v-235q0 -96 -68 -164t-164.5 -68t-164.5 68t-68 164v235q0 96 68 164t164.5 68zM384 233v235q0 46 -32.5 78.5t-79 32.5t-79 -32.5
t-32.5 -78.5v-235q0 -46 32.5 -78.5t79 -32.5t79 32.5t32.5 78.5z" />
    <glyph glyph-name="Otilde" unicode="&#xd5;" horiz-adv-x="545" 
d="M184 821l-20 -27l-86 65l19 25q44 66 113 66q44 0 90 -27q22 -13 32 -13q15 0 28 19l2 3l20 27l86 -65l-20 -25q-44 -66 -113 -66q-44 0 -90 27q-22 13 -32 13q-15 0 -28 -20zM272.5 700q96.5 0 164.5 -68t68 -164v-235q0 -96 -68 -164t-164.5 -68t-164.5 68t-68 164v235
q0 96 68 164t164.5 68zM384 233v235q0 46 -32.5 78.5t-79 32.5t-79 -32.5t-32.5 -78.5v-235q0 -46 32.5 -78.5t79 -32.5t79 32.5t32.5 78.5z" />
    <glyph glyph-name="Odieresis" unicode="&#xd6;" horiz-adv-x="545" 
d="M176.5 812q-26.5 0 -45.5 19t-19 45.5t19 45.5t45.5 19t45.5 -19t19 -45.5t-19 -45.5t-45.5 -19zM368.5 812q-26.5 0 -45.5 19t-19 45.5t19 45.5t45.5 19t45.5 -19t19 -45.5t-19 -45.5t-45.5 -19zM272.5 700q96.5 0 164.5 -68t68 -164v-235q0 -96 -68 -164t-164.5 -68
t-164.5 68t-68 164v235q0 96 68 164t164.5 68zM384 233v235q0 46 -32.5 78.5t-79 32.5t-79 -32.5t-32.5 -78.5v-235q0 -46 32.5 -78.5t79 -32.5t79 32.5t32.5 78.5z" />
    <glyph glyph-name="multiply" unicode="&#xd7;" horiz-adv-x="388" 
d="M348 433l-83 -83l83 -83l-71 -71l-83 82l-83 -82l-71 71l83 83l-83 83l71 71l83 -83l83 83z" />
    <glyph glyph-name="Oslash" unicode="&#xd8;" horiz-adv-x="545" 
d="M455 611q50 -63 50 -143v-235q0 -96 -68 -164t-164 -68q-43 0 -83 15l-19 -44l-111 49l30 68q-50 63 -50 144v235q0 96 68 164t165 68q43 0 83 -15l19 42l110 -49zM161 468v-220l145 326q-16 5 -33 5q-47 0 -79.5 -32.5t-32.5 -78.5zM384 233v219l-145 -325q17 -5 34 -5
q46 0 78.5 32.5t32.5 78.5z" />
    <glyph glyph-name="Ugrave" unicode="&#xd9;" horiz-adv-x="574" 
d="M347 846l-76 -76l-136 137l76 76zM482 700v-578h52v-121h-60q-52 0 -86 40q-57 -40 -127 -40q-91 0 -156 64.5t-65 156.5v478h121v-478q0 -42 29.5 -71t70.5 -29t70.5 29t29.5 71v478h121z" />
    <glyph glyph-name="Uacute" unicode="&#xda;" horiz-adv-x="574" 
d="M387 908l-137 -137l-76 76l137 137zM482 700v-578h52v-121h-60q-52 0 -86 40q-57 -40 -127 -40q-91 0 -156 64.5t-65 156.5v478h121v-478q0 -42 29.5 -71t70.5 -29t70.5 29t29.5 71v478h121z" />
    <glyph glyph-name="Ucircumflex" unicode="&#xdb;" horiz-adv-x="574" 
d="M258 831l-57 -57l-76 76l57 57q33 33 79 33t79 -33l57 -57l-76 -76l-57 57q-3 3 -6 0zM482 122h52v-121h-60q-52 0 -86 40q-57 -40 -127 -40q-91 0 -156 64.5t-65 156.5v478h121v-478q0 -42 29.5 -71t70.5 -29t70.5 29t29.5 71v478h121v-578z" />
    <glyph glyph-name="Udieresis" unicode="&#xdc;" horiz-adv-x="574" 
d="M165 812q-27 0 -45.5 19t-18.5 45.5t18.5 45.5t45.5 19t45.5 -19t18.5 -45.5t-18.5 -45.5t-45.5 -19zM357 812q-27 0 -45.5 19t-18.5 45.5t18.5 45.5t45.5 19t45.5 -19t18.5 -45.5t-18.5 -45.5t-45.5 -19zM482 700v-578h52v-121h-60q-52 0 -86 40q-57 -40 -127 -40
q-91 0 -156 64.5t-65 156.5v478h121v-478q0 -42 29.5 -71t70.5 -29t70.5 29t29.5 71v478h121z" />
    <glyph glyph-name="Yacute" unicode="&#xdd;" horiz-adv-x="522" 
d="M361 700h121v-190q0 -75 -45 -133.5t-115 -78.5v-298h-121v298q-71 20 -116 78.5t-45 133.5v190h121v-190q0 -49 40 -79q27 -21 60.5 -21t60.5 21q39 30 39 79v190zM367 907l-136 -137l-76 76l136 137z" />
    <glyph glyph-name="germandbls" unicode="&#xdf;" horiz-adv-x="623" 
d="M483 382q46 -27 73.5 -74t27.5 -102q0 -85 -60.5 -145.5t-144.5 -60.5h-117v121h117q34 0 59 25t25 59.5t-25 59.5t-59 25h-117v121h50q34 0 59 24.5t25 59.5q0 36 -28 60t-77 24h-72v-689h-121v689h-58v121h272q84 0 144.5 -60t60.5 -145q0 -61 -34 -113z" />
    <glyph glyph-name="agrave" unicode="&#xe0;" horiz-adv-x="520" 
d="M345 578l-61 -61l-109 110l61 61zM359 440h121v-440h-121v24q-46 -24 -99 -24q-91 0 -155.5 64.5t-64.5 155.5t64.5 155.5t155.5 64.5q53 0 99 -24v24zM260 121q41 0 70 29t29 70t-29 70t-70 29t-70 -29t-29 -70t29 -70t70 -29z" />
    <glyph glyph-name="aacute" unicode="&#xe1;" horiz-adv-x="520" 
d="M345 627l-109 -109l-61 60l109 110zM359 440h121v-440h-121v24q-46 -24 -99 -24q-91 0 -155.5 64.5t-64.5 155.5t64.5 155.5t155.5 64.5q53 0 99 -24v24zM260 121q41 0 70 29t29 70t-29 70t-70 29t-70 -29t-29 -70t29 -70t70 -29z" />
    <glyph glyph-name="acircumflex" unicode="&#xe2;" horiz-adv-x="520" 
d="M258 562l-46 -46l-61 61l46 46q26 26 63 26t63 -26l46 -46l-61 -61l-46 46q-2 2 -4 0zM359 440h121v-440h-121v24q-46 -24 -99 -24q-91 0 -155.5 64.5t-64.5 155.5t64.5 155.5t155.5 64.5q53 0 99 -24v24zM260 121q41 0 70 29t29 70t-29 70t-70 29t-70 -29t-29 -70
t29 -70t70 -29z" />
    <glyph glyph-name="atilde" unicode="&#xe3;" horiz-adv-x="520" 
d="M189 557l-16 -21l-69 51l15 21q29 43 72 51t91 -20q11 -7 17 -9t14.5 0.5t16.5 13.5l1 2l16 22l69 -52l-15 -20q-29 -43 -72 -51t-91 20q-11 6 -17 8.5t-14.5 0t-16.5 -14.5zM359 440h121v-440h-121v24q-46 -24 -99 -24q-91 0 -155.5 64.5t-64.5 155.5t64.5 155.5
t155.5 64.5q53 0 99 -24v24zM260 121q41 0 70 29t29 70t-29 70t-70 29t-70 -29t-29 -70t29 -70t70 -29z" />
    <glyph glyph-name="adieresis" unicode="&#xe4;" horiz-adv-x="520" 
d="M183.5 550q-21.5 0 -36.5 15.5t-15 36.5t15 36t36.5 15t36.5 -15t15 -36t-15 -36.5t-36.5 -15.5zM337 550q-21 0 -36.5 15.5t-15.5 36.5t15.5 36t36.5 15t36 -15t15 -36t-15 -36.5t-36 -15.5zM359 440h121v-440h-121v24q-46 -24 -99 -24q-91 0 -155.5 64.5t-64.5 155.5
t64.5 155.5t155.5 64.5q53 0 99 -24v24zM260 121q41 0 70 29t29 70t-29 70t-70 29t-70 -29t-29 -70t29 -70t70 -29z" />
    <glyph glyph-name="aring" unicode="&#xe5;" horiz-adv-x="520" 
d="M260 544q-36 0 -61 25t-25 60.5t25 61t61 25.5t61 -25.5t25 -61t-25 -60.5t-61 -25zM260 651q-9 0 -15.5 -6t-6.5 -15t6.5 -15.5t15.5 -6.5t15.5 6.5t6.5 15.5t-6.5 15t-15.5 6zM359 440h121v-440h-121v24q-46 -24 -99 -24q-91 0 -155.5 64.5t-64.5 155.5t64.5 155.5
t155.5 64.5q53 0 99 -24v24zM260 121q41 0 70 29t29 70t-29 70t-70 29t-70 -29t-29 -70t29 -70t70 -29z" />
    <glyph glyph-name="ae" unicode="&#xe6;" horiz-adv-x="845" 
d="M584 123q54 0 99 39l79 -92q-82 -70 -176 -70q-57 0 -106 25v-25h-121v24q-46 -24 -99 -24q-91 0 -155.5 64.5t-64.5 155.5t64.5 155.5t155.5 64.5q53 0 99 -24v24h121v-24q47 24 99 24q54 0 101.5 -24.5t78.5 -68.5q3 -4 7 -10l3 -5q2 -5 4 -9l3 -4q3 -7 6 -13l24 -56
l-139 -58l-134 -55q21 -14 51 -14zM260 121q41 0 70 29t29 70t-29 70t-70 29t-70 -29t-29 -70t29 -70t70 -29zM486 235l5 2l71 29l75 31q-1 2 -2 2q-23 20 -58 20q-18 0 -35 -7q-24 -11 -38.5 -31.5t-17.5 -45.5z" />
    <glyph glyph-name="ccedilla" unicode="&#xe7;" horiz-adv-x="455" 
d="M416 64q-46 -45 -108 -59v-21q28 -13 45.5 -40t17.5 -60q0 -46 -32.5 -78.5t-78.5 -32.5h-47v94h47q7 0 12 5t5 12t-5 12t-12 5h-47v104q-63 13 -109 59q-64 65 -64 156t64.5 155.5t155.5 64.5t156 -65l-86 -85q-29 29 -70 29t-70 -29t-29 -70t29 -70q10 -10 23 -18
q1 0 1.5 -0.5t1.5 -0.5q21 -10 44 -10q24 0 45 10l1.5 1.5t1.5 0.5q12 7 22 17z" />
    <glyph glyph-name="egrave" unicode="&#xe8;" horiz-adv-x="526" 
d="M335 578l-61 -61l-109 110l61 60zM264 123q55 0 100 39l79 -92q-83 -70 -176 -70q-66 0 -120 32t-82 86v1l-6 12q-6 12 -10 25v1q-2 6 -3 12v2q-2 6 -3 13q-3 18 -3 36q0 91 64.5 155.5t155.5 64.5q54 0 101.5 -24.5t77.5 -68.5h1q3 -5 7 -10l2.5 -4.5t4.5 -8.5l2 -4
l7 -14v0l24 -56l-122 -51l-17 -7l-135 -55q21 -14 51 -14zM167 235l5 2l71 29l75 31l-2 2q-24 20 -59 20q-18 0 -34 -7q-24 -11 -38.5 -31.5t-17.5 -45.5z" />
    <glyph glyph-name="eacute" unicode="&#xe9;" horiz-adv-x="526" 
d="M362 627l-110 -109l-61 60l110 110zM264 123q55 0 100 39l79 -92q-83 -70 -176 -70q-66 0 -120 32t-82 86v1l-6 12q-8 18 -13 38v1q-6 25 -6 50q0 91 64.5 155.5t155.5 64.5q54 0 101.5 -24.5t77.5 -68.5q4 -4 7 -10l3 -4q3 -4 5 -8l2 -5q4 -7 6 -13l0.5 -0.5l0.5 -0.5
l24 -56l-122 -51l-17 -7l-135 -55q21 -14 51 -14zM167 235l5 2l71 29l75 31l-2 2q-24 20 -58 20q-19 0 -35 -7q-24 -11 -38.5 -31.5t-17.5 -45.5z" />
    <glyph glyph-name="ecircumflex" unicode="&#xea;" horiz-adv-x="526" 
d="M261 562l-46 -46l-60 61l45 46q26 26 63 26t63 -26l46 -46l-61 -61l-45 46q-3 2 -5 0zM264 123q55 0 100 39l79 -92q-83 -70 -176 -70q-55 0 -102 22.5t-78 62.5q-13 15 -22 33v1l-6 12q-6 12 -10 25v1q-2 6 -3 12v2q-2 6 -3 13q-3 18 -3 36q0 91 64.5 155.5t155.5 64.5
q54 0 101.5 -24.5t77.5 -68.5h1q3 -4 6 -9q0 -1 2 -3v-1q3 -5 5 -9l3 -4q3 -7 6 -13v-1v0q0 -1 1 -1l24 -56l-122 -51l-17 -7l-135 -55q21 -14 51 -14zM167 235l5 2l71 29l75 31l-2 2q-23 20 -58 20q-19 0 -35 -7q-24 -11 -38.5 -31.5t-17.5 -45.5z" />
    <glyph glyph-name="edieresis" unicode="&#xeb;" horiz-adv-x="526" 
d="M186.5 550q-21.5 0 -36.5 15.5t-15 36.5t15 36t36.5 15t36.5 -15t15 -36t-15 -36.5t-36.5 -15.5zM340 550q-21 0 -36 15.5t-15 36.5t15 36t36 15t36.5 -15t15.5 -36t-15.5 -36.5t-36.5 -15.5zM264 123q55 0 100 39l79 -92q-83 -70 -176 -70q-66 0 -120 32t-82 86v1
q-4 6 -6 12q-8 18 -13 38v1q-6 25 -6 50q0 91 64.5 155.5t155.5 64.5q54 0 101.5 -24.5t78.5 -68.5q3 -5 7 -10l3 -5q2 -4 4 -9l3 -4q3 -7 6 -13l24 -56l-122 -51l-17 -7l-135 -55q21 -14 51 -14zM167 235l5 2l71 29l75 31l-2 2q-24 20 -59 20q-18 0 -34 -7
q-24 -11 -38.5 -31.5t-17.5 -45.5z" />
    <glyph glyph-name="igrave" unicode="&#xec;" horiz-adv-x="250" 
d="M210 578l-61 -61l-109 110l61 60zM206 0h-121v440h121v-440z" />
    <glyph glyph-name="iacute" unicode="&#xed;" horiz-adv-x="250" 
d="M210 627l-109 -109l-61 61l109 109zM166 0h-121v440h121v-440z" />
    <glyph glyph-name="icircumflex" unicode="&#xee;" horiz-adv-x="297" 
d="M146 562l-45 -46l-61 61l46 46q26 26 63 26t63 -26l46 -46l-61 -61l-46 46q-2 2 -5 0zM209 0h-121v440h121v-440z" />
    <glyph glyph-name="idieresis" unicode="&#xef;" horiz-adv-x="336" 
d="M91.5 550q-21.5 0 -36.5 15.5t-15 36.5t15 36t36.5 15t36.5 -15t15 -36t-15 -36.5t-36.5 -15.5zM245 550q-21 0 -36 15.5t-15 36.5t15 36t36 15t36 -15t15 -36t-15 -36.5t-36 -15.5zM229 0h-121v440h121v-440z" />
    <glyph glyph-name="ntilde" unicode="&#xf1;" horiz-adv-x="524" 
d="M213 557l-16 -21l-69 51l16 21q35 52 91 52q34 0 71 -21q18 -10 26 -10q12 0 22 15l2 2l16 22l69 -52l-16 -20q-35 -53 -91 -53q-34 0 -71 22q-18 10 -26 10q-12 0 -22 -16zM291 440q80 0 137 -56.5t57 -136.5v-247h-121v247q0 30 -21.5 51t-51.5 21t-51 -21t-21 -51
v-247h-121v319h-58v121h60q48 0 83 -33q49 33 108 33z" />
    <glyph glyph-name="ograve" unicode="&#xf2;" horiz-adv-x="520" 
d="M332 577l-60 -60l-110 109l61 61zM260 440q91 0 155.5 -64.5t64.5 -155.5t-64.5 -155.5t-155.5 -64.5t-155.5 64.5t-64.5 155.5t64.5 155.5t155.5 64.5zM260 121q41 0 70 29t29 70t-29 70t-70 29t-70 -29t-29 -70t29 -70t70 -29z" />
    <glyph glyph-name="oacute" unicode="&#xf3;" horiz-adv-x="520" 
d="M358 627l-109 -109l-61 61l109 109zM260 440q91 0 155.5 -64.5t64.5 -155.5t-64.5 -155.5t-155.5 -64.5t-155.5 64.5t-64.5 155.5t64.5 155.5t155.5 64.5zM260 121q41 0 70 29t29 70t-29 70t-70 29t-70 -29t-29 -70t29 -70t70 -29z" />
    <glyph glyph-name="ocircumflex" unicode="&#xf4;" horiz-adv-x="520" 
d="M258 562l-46 -46l-61 61l46 46q26 26 63 26t63 -26l46 -46l-61 -61l-46 46q-2 2 -4 0zM260 440q91 0 155.5 -64.5t64.5 -155.5t-64.5 -155.5t-155.5 -64.5t-155.5 64.5t-64.5 155.5t64.5 155.5t155.5 64.5zM260 121q41 0 70 29t29 70t-29 70t-70 29t-70 -29t-29 -70
t29 -70t70 -29z" />
    <glyph glyph-name="otilde" unicode="&#xf5;" horiz-adv-x="520" 
d="M189 557l-16 -21l-69 51l15 21q36 52 91 52q35 0 72 -21q17 -10 25 -10q12 0 23 15l1 2l16 22l69 -52l-15 -20q-36 -53 -91 -53q-35 0 -72 22q-17 10 -25 10q-12 0 -23 -16zM260 440q91 0 155.5 -64.5t64.5 -155.5t-64.5 -155.5t-155.5 -64.5t-155.5 64.5t-64.5 155.5
t64.5 155.5t155.5 64.5zM260 121q41 0 70 29t29 70t-29 70t-70 29t-70 -29t-29 -70t29 -70t70 -29z" />
    <glyph glyph-name="odieresis" unicode="&#xf6;" horiz-adv-x="520" 
d="M183.5 550q-21.5 0 -36.5 15.5t-15 36.5t15 36t36.5 15t36.5 -15t15 -36t-15 -36.5t-36.5 -15.5zM337 550q-21 0 -36.5 15.5t-15.5 36.5t15.5 36t36.5 15t36 -15t15 -36t-15 -36.5t-36 -15.5zM260 440q91 0 155.5 -64.5t64.5 -155.5t-64.5 -155.5t-155.5 -64.5
t-155.5 64.5t-64.5 155.5t64.5 155.5t155.5 64.5zM260 121q41 0 70 29t29 70t-29 70t-70 29t-70 -29t-29 -70t29 -70t70 -29z" />
    <glyph glyph-name="oslash" unicode="&#xf8;" horiz-adv-x="547" 
d="M507 378l-44 -45q31 -52 31 -113q0 -91 -64.5 -155.5t-155.5 -64.5q-61 0 -113 31l-45 -45l-76 76l45 45q-31 52 -31 113q0 91 64.5 155.5t155.5 64.5q60 0 112 -31l45 45zM175 220q0 -11 2 -21l118 118q-11 2 -21 2q-41 0 -70 -29t-29 -70zM373 220q0 11 -2 21
l-118 -118q10 -2 21 -2q41 0 70 29t29 70z" />
    <glyph glyph-name="ugrave" unicode="&#xf9;" horiz-adv-x="524" 
d="M298 577l-60 -60l-110 109l61 61zM426 121h58v-121h-60q-48 0 -82 33q-49 -33 -109 -33q-80 0 -136.5 56.5t-56.5 136.5v247h121v-247q0 -30 21 -51t51 -21t51.5 21t21.5 51v247h120v-319z" />
    <glyph glyph-name="uacute" unicode="&#xfa;" horiz-adv-x="524" 
d="M338 627l-110 -109l-61 61l110 109zM426 121h58v-121h-60q-48 0 -82 33q-49 -33 -109 -33q-80 0 -136.5 56.5t-56.5 136.5v247h121v-247q0 -30 21 -51t51 -21t51.5 21t21.5 51v247h120v-319z" />
    <glyph glyph-name="ucircumflex" unicode="&#xfb;" horiz-adv-x="524" 
d="M231 562l-46 -46l-61 61l46 45q26 27 63 27t63 -27l46 -45l-61 -61l-45 46q-3 2 -5 0zM426 121h58v-121h-60q-48 0 -82 33q-49 -33 -109 -33q-80 0 -136.5 56.5t-56.5 136.5v247h121v-247q0 -30 21 -51t51 -21t51.5 21t21.5 51v247h120v-319z" />
    <glyph glyph-name="udieresis" unicode="&#xfc;" horiz-adv-x="524" 
d="M156.5 550q-21.5 0 -36.5 15.5t-15 36.5t15 36t36.5 15t36.5 -15t15 -36t-15 -36.5t-36.5 -15.5zM310 550q-21 0 -36 15.5t-15 36.5t15 36t36 15t36 -15t15 -36t-15 -36.5t-36 -15.5zM426 121h58v-121h-60q-48 0 -82 33q-49 -33 -109 -33q-80 0 -136.5 56.5t-56.5 136.5
v247h121v-247q0 -30 21 -51t51 -21t51.5 21t21.5 51v247h120v-319z" />
    <glyph glyph-name="yacute" unicode="&#xfd;" horiz-adv-x="466" 
d="M306 440h121v-539q0 -80 -57 -136.5t-137 -56.5t-136.5 56.5t-56.5 136.5h121q0 -30 21 -51t51 -21t51.5 21t21.5 51v113q-35 -14 -73 -14q-80 0 -136.5 56.5t-56.5 136.5v247h121v-247q0 -30 21 -51t51 -21t51.5 21t21.5 51v247zM332 627l-110 -109l-60 60l109 110z" />
    <glyph glyph-name="ydieresis" unicode="&#xff;" horiz-adv-x="466" 
d="M156.5 550q-21.5 0 -36.5 15.5t-15 36.5t15 36t36.5 15t36.5 -15t15 -36t-15 -36.5t-36.5 -15.5zM310 550q-21 0 -36 15.5t-15 36.5t15 36t36 15t36.5 -15t15.5 -36t-15.5 -36.5t-36.5 -15.5zM306 440h121v-539q0 -80 -57 -136.5t-137 -56.5t-136.5 56.5t-56.5 136.5h121
q0 -30 21 -51t51 -21t51.5 21t21.5 51v113q-35 -14 -73 -14q-80 0 -136.5 56.5t-56.5 136.5v247h121v-247q0 -30 21 -51t51 -21t51.5 21t21.5 51v247z" />
    <glyph glyph-name="OE" unicode="&#x152;" horiz-adv-x="853" 
d="M589 579q-34 0 -59 -24.5t-25 -59.5t25 -59.5t59 -24.5h224v-121h-224q-44 0 -84 18v-102q0 -35 25 -59.5t59 -24.5h224v-121h-224q-91 0 -152 68q-68 -68 -164.5 -68t-164.5 68t-68 164v235q0 96 68 164t164.5 68t164.5 -68q61 68 152 68h224v-121h-224zM272.5 122
q46.5 0 79 32.5t32.5 78.5v235q0 46 -32.5 78.5t-79 32.5t-79 -32.5t-32.5 -78.5v-235q0 -46 32.5 -78.5t79 -32.5z" />
    <glyph glyph-name="oe" unicode="&#x153;" horiz-adv-x="844" 
d="M583 123q54 0 100 39l78 -92q-82 -70 -176 -70q-99 0 -166 68q-65 -68 -159 -68q-91 0 -155.5 64.5t-64.5 155.5t64.5 155.5t155.5 64.5q94 0 159 -68q65 68 159 68q54 0 101.5 -24.5t78.5 -68.5q3 -4 7 -10l3 -5q2 -4 5 -9l2 -4q4 -8 6 -13l24 -56l-139 -58l-134 -55
q21 -14 51 -14zM260 121q38 0 66.5 25.5t32.5 63.5q-1 5 -1 10t1 10q-4 38 -32.5 63.5t-66.5 25.5q-41 0 -70 -29t-29 -70t29 -70t70 -29zM486 235l4 2l72 29l74 31q-1 2 -2 2q-23 20 -58 20q-18 0 -34 -7q-25 -11 -39.5 -31.5t-16.5 -45.5z" />
    <glyph glyph-name="Ydieresis" unicode="&#x178;" horiz-adv-x="522" 
d="M165 812q-27 0 -45.5 19t-18.5 45.5t18.5 45.5t45.5 19t45.5 -19t18.5 -45.5t-18.5 -45.5t-45.5 -19zM357 812q-27 0 -45.5 19t-18.5 45.5t18.5 45.5t45.5 19t45.5 -19t18.5 -45.5t-18.5 -45.5t-45.5 -19zM361 700h121v-189q0 -75 -45 -134t-115 -79v-297h-121v297
q-71 20 -116 79t-45 134v189h121v-189q0 -50 40 -80q27 -20 60.5 -20t60.5 20q39 30 39 80v189z" />
    <glyph glyph-name="endash" unicode="&#x2013;" horiz-adv-x="371" 
d="M332 289h-292v121h292v-121z" />
    <glyph glyph-name="emdash" unicode="&#x2014;" horiz-adv-x="492" 
d="M453 289h-413v121h413v-121z" />
    <glyph glyph-name="horizontalbar" unicode="&#x2015;" horiz-adv-x="613" 
d="M573 289h-533v121h533v-121z" />
    <glyph glyph-name="quoteleft" unicode="&#x2018;" horiz-adv-x="238" 
d="M186 780h13v-121h-13q-11 0 -18 -7t-7 -17v-168h-121v168q0 60 42.5 102.5t103.5 42.5z" />
    <glyph glyph-name="quoteright" unicode="&#x2019;" horiz-adv-x="238" 
d="M78 780h121v-168q0 -60 -43 -102.5t-103 -42.5h-13v121h13q10 0 17.5 7t7.5 17v168z" />
    <glyph glyph-name="quoteleftreversed" unicode="&#x201b;" horiz-adv-x="238" 
d="M186 780h13v-121h-13q-11 0 -18 -7t-7 -17v-168h-121v168q0 60 42.5 102.5t103.5 42.5z" />
    <glyph glyph-name="quotedblleft" unicode="&#x201c;" horiz-adv-x="445" 
d="M40 635q0 60 42.5 102.5t103.5 42.5h13v-121h-13q-11 0 -18 -7t-7 -17v-168h-121v168zM392 780h13v-121h-13q-10 0 -17.5 -7t-7.5 -17v-168h-121v168q0 60 43 102.5t103 42.5z" />
    <glyph glyph-name="quotedblright" unicode="&#x201d;" horiz-adv-x="445" 
d="M284 780h121v-168q0 -60 -42.5 -102.5t-103.5 -42.5h-13v121h13q11 0 18 7t7 17v168zM78 612v168h121v-168q0 -60 -43 -102.5t-103 -42.5h-13v121h13q10 0 17.5 7t7.5 17z" />
    <glyph glyph-name="quotedblbase" unicode="&#x201e;" horiz-adv-x="445" 
d="M405 124v-168q0 -60 -42.5 -103t-103.5 -43h-13v121h13q11 0 18 7.5t7 17.5v168h121zM78 -44v168h121v-168q0 -60 -43 -103t-103 -43h-13v121h13q10 0 17.5 7.5t7.5 17.5z" />
    <glyph glyph-name="dagger" unicode="&#x2020;" horiz-adv-x="402" 
d="M252 513h111v-101h-111v-365h-101v365h-111v101h111v139h101v-139z" />
    <glyph glyph-name="bullet" unicode="&#x2022;" horiz-adv-x="239" 
d="M120 289q-33 0 -56.5 23.5t-23.5 56.5t23.5 56.5t56.5 23.5t56.5 -23.5t23.5 -56.5t-23.5 -56.5t-56.5 -23.5z" />
    <glyph glyph-name="ellipsis" unicode="&#x2026;" horiz-adv-x="594" 
d="M161 0h-121v124h121v-124zM358 0h-121v124h121v-124zM554 0h-121v124h121v-124z" />
    <glyph glyph-name="Euro" unicode="&#x20ac;" horiz-adv-x="538" 
d="M334 121q46 0 79 33l86 -86q-69 -68 -165 -68t-164.5 68t-68.5 165v7h-61v94h61v32h-61v94h61v7q0 96 68.5 164.5t164.5 68.5t165 -69l-86 -85q-33 33 -79 33t-79 -33t-33 -79v-7h211v-94h-211v-32h211v-94h-211v-7q0 -47 33 -79.5t79 -32.5z" />
    <glyph glyph-name="ideographiccomma" unicode="&#x3001;" horiz-adv-x="502" 
d="M100 212q63 0 107.5 -44.5t44.5 -107.5v-60h-121v60q0 13 -9 22t-22 9h-60v121h60z" />
    <glyph glyph-name="ideographicperiod" unicode="&#x3002;" horiz-adv-x="502" 
d="M191.5 302q62.5 0 106.5 -44t44 -106.5t-44 -107t-106.5 -44.5t-107 44.5t-44.5 107t44.5 106.5t107 44zM191.5 121q12.5 0 21 9t8.5 21.5t-8.5 21t-21 8.5t-21.5 -8.5t-9 -21t9 -21.5t21.5 -9z" />
    <glyph glyph-name="asmallkatakana" unicode="&#x30a1;" horiz-adv-x="503" 
d="M40 484h423v-121q0 -88 -62 -150t-149 -62h-33v3t1 2q-3 -18 -9 -35q-14 -39 -43 -68t-68 -43q-29 -10 -60 -10v121q25 0 42.5 17.5t17.5 42.5v152h121v-61h31q37 0 63.5 26.5t26.5 64.5h-302v121zM221 181v-15v15z" />
    <glyph glyph-name="akatakana" unicode="&#x30a2;" 
d="M40 489v120h552v-120q0 -101 -70.5 -171.5t-171.5 -70.5v-5q0 -100 -70.5 -171t-170.5 -71h-69v121h69q50 0 85.5 35.5t35.5 85.5v186h120v-60q51 0 86 35t35 86h-431z" />
    <glyph glyph-name="ismallkatakana" unicode="&#x30a3;" horiz-adv-x="503" 
d="M342 484h121q0 -70 -32.5 -129.5t-88.5 -97.5v-257h-121v213q-15 -1 -30 -1h-151v121h151q16 0 30 3q52 10 86.5 51.5t34.5 95.5v1z" />
    <glyph glyph-name="ikatakana" unicode="&#x30a4;" 
d="M471 609h121v-60q0 -100 -70.5 -171t-171.5 -71v-307h-120v307h-190v121h310q51 0 86 35.5t35 85.5v60z" />
    <glyph glyph-name="usmallkatakana" unicode="&#x30a5;" horiz-adv-x="503" 
d="M342 423h121v-121q0 -125 -88.5 -213.5t-213.5 -88.5h-121v121h121q75 0 128 53t53 128h-181v-90h-121v211h181v61h121v-61z" />
    <glyph glyph-name="ukatakana" unicode="&#x30a6;" 
d="M377 549h215v-196q0 -96 -47 -177.5t-128.5 -128.5t-177.5 -47h-199v121h199q96 0 164 68t68 164v75h-310v-135h-121v256h216v60h121v-60z" />
    <glyph glyph-name="esmallkatakana" unicode="&#x30a7;" horiz-adv-x="503" 
d="M463 333h-151v-212h151v-121h-423v121h151v212h-151v121h423v-121z" />
    <glyph glyph-name="ekatakana" unicode="&#x30a8;" 
d="M592 458h-215v-337h215v-121h-552v121h216v337h-216v121h552v-121z" />
    <glyph glyph-name="osmallkatakana" unicode="&#x30a9;" horiz-adv-x="503" 
d="M342 423h121v-121h-121v-302h-121v60q-80 -60 -181 -60v121q75 0 128 53t53 128h-181v121h181v61h121v-61z" />
    <glyph glyph-name="okatakana" unicode="&#x30aa;" 
d="M532 549h60v-121h-60v-428h-121v353q0 -96 -47.5 -177.5t-128.5 -128.5t-177 -47h-18v121h18q96 0 164 68t68 164v75h-250v121h371v60h121v-60z" />
    <glyph glyph-name="kakatakana" unicode="&#x30ab;" 
d="M582 430q10 -29 10 -60v-368h-121v368q0 25 -17.5 42.5t-42.5 17.5h-129v-188q0 -100 -71 -171t-171 -71v121q50 0 85.5 35.5t35.5 85.5v188h-121v121h121v58h121v-58h129q31 0 60 -10q39 -14 68 -43t43 -68z" />
    <glyph glyph-name="gakatakana" unicode="&#x30ac;" horiz-adv-x="673" 
d="M653 549h-121v181h121v-181zM502 549h-121v181h121v-181zM471 539q39 -14 68 -43t43 -68q10 -29 10 -60v-368h-121v368q0 25 -17.5 42.5t-42.5 17.5h-129v-186q0 -100 -71 -171t-171 -71v121q50 0 85.5 35.5t35.5 85.5v186h-121v121h121v60h121v-60h129q31 0 60 -10z" />
    <glyph glyph-name="kikatakana" unicode="&#x30ad;" 
d="M592 549v-121h-297q18 -27 45 -61l52 -63h200v-121h-120q16 -33 20 -62q2 -12 2 -24v-97h-121v97q0 10 -5 24q-10 24 -36 62h-292v121h196q-56 72 -79 124h-117v121h98v60h121v-60h333z" />
    <glyph glyph-name="gikatakana" unicode="&#x30ae;" horiz-adv-x="673" 
d="M532 730h121v-181h-61v-121h-297q18 -27 45 -61l52 -63h200v-121h-120q16 -33 20 -62q2 -12 2 -24v-97h-121v97q0 10 -5 24q-10 24 -36 62h-292v121h196q-56 72 -79 124h-117v121h98v60h121v-60h122v181h121v-181h30v181z" />
    <glyph glyph-name="kukatakana" unicode="&#x30af;" 
d="M131 609h461v-256q0 -55 -16 -106q-20 -64 -62 -116q-49 -60 -117 -94q-75 -37 -158 -37h-199v121h199q71 0 130 40q50 33 77 86l5 10q20 46 20 96v136h-219q0 -88 -62 -150t-150 -62v121q38 0 64.5 26.5t26.5 64.5v120z" />
    <glyph glyph-name="gukatakana" unicode="&#x30b0;" horiz-adv-x="673" 
d="M532 730h121v-181h-61v-196q0 -55 -16 -106q-20 -64 -62 -116q-49 -60 -117 -94q-75 -37 -158 -37h-199v121h199q71 0 130 40q50 33 77 86l5 10q20 46 20 96v136h-219q0 -88 -62 -150t-150 -62v121q38 0 64.5 26.5t26.5 64.5v120h250v121h121v-121h30v121z" />
    <glyph glyph-name="kekatakana" unicode="&#x30b1;" 
d="M252 549h340v-121h-90v-75q0 -96 -47.5 -177.5t-128.5 -128.5t-177 -47h-109v121h109q96 0 164 68t68 164v75h-138q-20 -66 -76 -108.5t-127 -42.5v121q40 0 67 30q24 26 24 61v120h121v-60z" />
    <glyph glyph-name="gekatakana" unicode="&#x30b2;" horiz-adv-x="673" 
d="M470 548h122v-121h-90v-75q0 -96 -47.5 -177t-128.5 -128.5t-177 -47.5h-109v121h109q96 0 164 68t68 164v75h-138q-20 -66 -76 -108.5t-127 -42.5v121q40 0 67 30q24 26 24 61v121h121v-61h218zM653 549h-121v181h121v-181zM502 549h-121v181h121v-181z" />
    <glyph glyph-name="kokatakana" unicode="&#x30b3;" 
d="M350 579q101 0 171.5 -70.5t70.5 -171.5v-95q0 -100 -70.5 -171t-171.5 -71h-310v121h310q51 0 86 35.5t35 85.5v95q0 50 -35 85.5t-86 35.5h-310v121h310z" />
    <glyph glyph-name="gokatakana" unicode="&#x30b4;" horiz-adv-x="673" 
d="M468 549q56 -32 90 -88t34 -124v-95q0 -100 -70.5 -171t-171.5 -71h-310v121h310q51 0 86 35.5t35 85.5v95q0 50 -35 85.5t-86 35.5h-310v121h310q16 0 31 -2v153h121v-181h-34zM653 549h-121v181h121v-181z" />
    <glyph glyph-name="sakatakana" unicode="&#x30b5;" 
d="M532 549h60v-121h-60v-46v-29q0 -96 -47.5 -177.5t-128.5 -128.5t-177 -47h-79v121h79q96 0 164 68t68 164v29v46h-190v-181h-121v181h-60v121h60v60h121v-60h190v60h121v-60z" />
    <glyph glyph-name="zakatakana" unicode="&#x30b6;" horiz-adv-x="673" 
d="M653 549h-121h60v-121h-60v-51v-24q0 -96 -47.5 -177.5t-128.5 -128.5t-177 -47h-79v121h79q96 0 164 68t68 164v24v51h-190v-181h-121v181h-60v121h60v60h121v-60h190h-30v181h121v-121h30v121h121v-181z" />
    <glyph glyph-name="sikatakana" unicode="&#x30b7;" 
d="M342 307h-302v121h302v-121zM342 489h-302v120h302v-120zM471 609h121v-256q0 -96 -47 -177.5t-128.5 -128.5t-177.5 -47h-199v121h199q96 0 164 68t68 164v256z" />
    <glyph glyph-name="zikatakana" unicode="&#x30b8;" horiz-adv-x="673" 
d="M532 730h121v-181h-61v-196q0 -96 -47 -177.5t-128.5 -128.5t-177.5 -47h-199v121h199q96 0 164 68t68 164v196h-90v181h121v-121h30v121zM342 307h-302v121h302v-121zM342 489h-302v120h302v-120z" />
    <glyph glyph-name="sukatakana" unicode="&#x30b9;" 
d="M471 155q56 -34 121 -34v-121q-114 0 -206 67q-93 -67 -207 -67h-139v121h139q65 0 121 34t86 93q25 49 25 105v136h-371v120h492v-256q0 -108 -61 -198z" />
    <glyph glyph-name="zukatakana" unicode="&#x30ba;" horiz-adv-x="673" 
d="M653 549h-121v181h121v-181zM532 353q0 -108 -61 -198q56 -34 121 -34v-121q-114 0 -206 67q-93 -67 -207 -67h-139v121h139q65 0 121 34t86 93q25 49 25 105v136h-371v120h341v121h121v-121h30v-256z" />
    <glyph glyph-name="sekatakana" unicode="&#x30bb;" 
d="M350 307q51 0 86 35.5t35 85.5h-250v-247q0 -25 18 -42.5t43 -17.5h310v-121h-310q-31 0 -61 10q-38 14 -67.5 43t-42.5 68q-11 29 -11 60v247h-60v121h60v60h121v-60h371v-121q0 -100 -70.5 -171t-171.5 -71v121z" />
    <glyph glyph-name="zekatakana" unicode="&#x30bc;" horiz-adv-x="673" 
d="M221 549h371v-121q0 -100 -70.5 -171t-171.5 -71v121q51 0 86 35.5t35 85.5h-250v-247q0 -25 18 -42.5t43 -17.5h310v-121h-310q-31 0 -61 10q-38 14 -67.5 43t-42.5 68q-11 29 -11 60v247h-60v121h60v60h121v-60zM653 549h-121v181h121v-181zM502 549h-121v181h121v-181
z" />
    <glyph glyph-name="sokatakana" unicode="&#x30bd;" 
d="M471 609h121v-256q0 -96 -47 -177.5t-128.5 -128.5t-177.5 -47h-199v121h199q96 0 164 68t68 164v256zM158 302q-49 0 -83.5 35t-34.5 84v188h121v-186h60v-121h-63z" />
    <glyph glyph-name="zokatakana" unicode="&#x30be;" horiz-adv-x="673" 
d="M532 730h121v-181h-61v-196q0 -96 -47 -177.5t-128.5 -128.5t-177.5 -47h-199v121h199q96 0 164 68t68 164v196h-90v181h121v-121h30v121zM158 302q-49 0 -83.5 35t-34.5 84v188h121v-186h60v-121h-63z" />
    <glyph glyph-name="takatakana" unicode="&#x30bf;" 
d="M131 609h461v-256q0 -55 -16 -106q-20 -64 -62 -116q-12 -15 -27 -29q0 -1 -0.5 -1t-0.5 -1q-8 -7 -15 -13l-2 -2q-8 -7 -17 -14l-2 -1q-8 -6 -16 -11l-4 -3q-10 -7 -19 -11l-14 -8l-3 -1q-7 -4 -15 -7q-5 -2 -12 -5h-1q-61 -24 -127 -24h-199v121h199q58 0 108 27
q-18 31 -55 79l-55 66q-23 29 -40 54q-63 -70 -157 -70v121q38 0 64.5 26.5t26.5 64.5v120zM333 367l55 -67q30 -38 49 -68q5 7 9 15l5 10q20 46 20 96v136h-215q14 -43 77 -122z" />
    <glyph glyph-name="dakatakana" unicode="&#x30c0;" horiz-adv-x="673" 
d="M532 730h121v-181h-61v-196q0 -55 -16 -106q-20 -64 -62 -116q-12 -15 -27 -29l-1 -1q-15 -15 -30 -27l-3 -2q-6 -5 -13 -9l-4 -3q-9 -6 -17 -11l-22 -12l-4 -2q-6 -3 -14 -6q-5 -2 -12 -5h-1q-61 -24 -127 -24h-199v121h199q58 0 108 27q-18 31 -55 79l-55 66
q-23 29 -40 54q-63 -70 -157 -70v121q38 0 64.5 26.5t26.5 64.5v120h250v121h121v-121h30v121zM333 367l55 -67q30 -38 49 -68q5 7 9 15l5 10q20 46 20 96v136h-215q14 -43 77 -122z" />
    <glyph glyph-name="tikatakana" unicode="&#x30c1;" 
d="M471 428h121v-121h-121v-65q0 -100 -70.5 -171t-170.5 -71h-190v121h190q50 0 85 35.5t35 85.5v65h-310v121h310v61h-250v120h432v-120h-61v-61z" />
    <glyph glyph-name="dikatakana" unicode="&#x30c2;" horiz-adv-x="673" 
d="M532 488l-61 1v-61h121v-121h-121v-65q0 -100 -70.5 -171t-170.5 -71h-190v121h190q50 0 85 35.5t35 85.5v65h-310v121h310v61h-250v120h281v121h121v-121h30v-60v60v121h121v-181h-121v-61z" />
    <glyph glyph-name="tusmallkatakana" unicode="&#x30c3;" horiz-adv-x="503" 
d="M312 302h-121v182h121v-182zM161 302h-121v182h121v-182zM342 484h121v-182q0 -125 -88.5 -213.5t-213.5 -88.5h-121v121h121q75 0 128 53t53 128v182z" />
    <glyph glyph-name="tukatakana" unicode="&#x30c4;" 
d="M471 609h121v-256q0 -96 -47 -177.5t-128.5 -128.5t-177.5 -47h-199v121h199q96 0 164 68t68 164v256zM342 307h-121v302h121v-302zM161 307h-121v302h121v-302z" />
    <glyph glyph-name="dukatakana" unicode="&#x30c5;" horiz-adv-x="673" 
d="M532 730h121v-181h-61v-196q0 -96 -47 -177.5t-128.5 -128.5t-177.5 -47h-199v121h199q96 0 164 68t68 164v196h-90v181h121v-121h30v121zM342 307h-121v302h121v-302zM161 307h-121v302h121v-302z" />
    <glyph glyph-name="tekatakana" unicode="&#x30c6;" 
d="M40 428h552v-121h-121v-65q0 -100 -70.5 -171t-170.5 -71h-190v121h190q50 0 85 35.5t35 85.5v65h-310v121zM532 489h-432v120h432v-120z" />
    <glyph glyph-name="dekatakana" unicode="&#x30c7;" horiz-adv-x="673" 
d="M532 730h121v-181h-121v-60h-432v120h281v121h121v-121h30v-60v60v121zM40 428h552v-121h-121v-65q0 -100 -70.5 -171t-170.5 -71h-190v121h190q50 0 85 35.5t35 85.5v65h-310v121z" />
    <glyph glyph-name="tokatakana" unicode="&#x30c8;" 
d="M161 428h431v-121h-431v-307h-121v609h121v-181z" />
    <glyph glyph-name="dokatakana" unicode="&#x30c9;" horiz-adv-x="673" 
d="M653 549h-121v181h121v-181zM502 549h-121v181h121v-181zM161 609v-181h431v-121h-431q-57 0 -93 44q36 -44 93 -44v-307h-121v609h121z" />
    <glyph glyph-name="nakatakana" unicode="&#x30ca;" 
d="M471 549h121v-121h-121v-186q0 -100 -70.5 -171t-170.5 -71h-190v121h190q50 0 85 35.5t35 85.5v186h-310v121h310v60h121v-60z" />
    <glyph glyph-name="nikatakana" unicode="&#x30cb;" 
d="M592 0h-552v121h552v-121zM592 428h-552v121h552v-121z" />
    <glyph glyph-name="nukatakana" unicode="&#x30cc;" 
d="M70 579h522v-121q0 -133 -71 -245q71 -95 71 -213h-121q0 63 -31 117q-62 -56 -140.5 -86.5t-165.5 -30.5h-94v121h94q125 0 219 81q-52 30 -114 30v121q104 0 191 -56q41 75 41 161h-401v121z" />
    <glyph glyph-name="nekatakana" unicode="&#x30cd;" 
d="M377 549h215v-75q0 -78 -31.5 -147t-88.5 -118q55 -32 87.5 -87.5t32.5 -121.5h-121q0 43 -26.5 76t-67.5 42v-118h-121v121h-17h-199v121h199q8 0 17 1q8 0 16 1q57 8 105 43l7 6q66 53 83 135h-427v121h216v60h121v-60z" />
    <glyph glyph-name="nokatakana" unicode="&#x30ce;" horiz-adv-x="599" 
d="M438 609h121v-151q0 -93 -36.5 -178t-98 -146t-146 -97.5t-178.5 -36.5h-60v121h60q92 0 170 45t123 123t45 169v151z" />
    <glyph glyph-name="hakatakana" unicode="&#x30cf;" 
d="M100 121v488h121v-491q0 -49 -34.5 -83.5t-83.5 -34.5h-63v121h60zM532 121h60v-121h-63q-49 0 -83.5 34.5t-34.5 83.5v491h121v-488z" />
    <glyph glyph-name="bakatakana" unicode="&#x30d0;" horiz-adv-x="673" 
d="M653 549h-121v-428h60v-121h-63q-49 0 -83.5 34.5t-34.5 83.5v431h-30v181h121v-121h30v121h121v-181zM100 121v488h121v-491q0 -49 -34.5 -83.5t-83.5 -34.5h-63v121h60z" />
    <glyph glyph-name="pakatakana" unicode="&#x30d1;" horiz-adv-x="673" 
d="M100 121v488h121v-491q0 -49 -34.5 -83.5t-83.5 -34.5h-63v121h60zM653 640q0 -55 -34.5 -96.5t-86.5 -51.5v-371h60v-121h-63q-49 0 -83.5 34.5t-34.5 83.5v401q-28 21 -44.5 52.5t-16.5 68.5q0 62 44.5 106.5t107 44.5t107 -44.5t44.5 -106.5zM501.5 670
q-12.5 0 -21.5 -9t-9 -21.5t9 -21.5t21.5 -9t21.5 9t9 21.5t-9 21.5t-21.5 9z" />
    <glyph glyph-name="hikatakana" unicode="&#x30d2;" 
d="M161 428v-247q0 -25 17.5 -42.5t42.5 -17.5h371v-121h-371q-31 0 -60 10q-39 14 -68 43t-43 68q-10 29 -10 60v428h121v-60h431v-121h-431z" />
    <glyph glyph-name="bikatakana" unicode="&#x30d3;" horiz-adv-x="673" 
d="M532 730h121v-181h-61v-121h-431v-244q0 -25 17.5 -43t42.5 -18h371v-121h-371q-31 0 -60 11q-39 13 -68 42.5t-43 67.5q-10 30 -10 61v428h121v-63h220v181h121v-181h30v181z" />
    <glyph glyph-name="pikatakana" unicode="&#x30d4;" horiz-adv-x="673" 
d="M501.5 792q62.5 0 107 -44.5t44.5 -106.5q0 -37 -16.5 -68.5t-44.5 -52.5v-92h-431v-244q0 -25 17.5 -43t42.5 -18h371v-121h-371q-31 0 -60 11q-39 13 -68 42.5t-43 67.5q-10 30 -10 61v428h121v-63h220q-31 40 -31 92q0 62 44.5 106.5t107 44.5zM501.5 671
q-12.5 0 -21.5 -9t-9 -21.5t9 -21.5t21.5 -9t21.5 9t9 21.5t-9 21.5t-21.5 9z" />
    <glyph glyph-name="hukatakana" unicode="&#x30d5;" 
d="M40 609h552v-256q0 -96 -47 -177.5t-128.5 -128.5t-177.5 -47h-199v121h199q96 0 164 68t68 164v136h-431v120z" />
    <glyph glyph-name="bukatakana" unicode="&#x30d6;" horiz-adv-x="673" 
d="M532 730h121v-181h-61v-196q0 -96 -47 -177.5t-128.5 -128.5t-177.5 -47h-199v121h199q96 0 164 68t68 164v136h-431v120h341v121h121v-121h30v121z" />
    <glyph glyph-name="pukatakana" unicode="&#x30d7;" horiz-adv-x="673" 
d="M501.5 791q62.5 0 107 -44.5t44.5 -106.5q0 -37 -16.5 -68.5t-44.5 -52.5v-166q0 -96 -47 -177.5t-128.5 -128.5t-177.5 -47h-199v121h199q96 0 164 68t68 164v136h-431v120h313q-3 15 -3 31q0 62 44.5 106.5t107 44.5zM501.5 670q-12.5 0 -21.5 -9t-9 -21.5t9 -21.5
t21.5 -9t21.5 9t9 21.5t-9 21.5t-21.5 9z" />
    <glyph glyph-name="hekatakana" unicode="&#x30d8;" 
d="M411 302q0 -75 53 -128t128 -53v-121q-124 0 -212.5 87.5t-89.5 212.5v189h-38q-38 0 -64.5 -27t-26.5 -64v-368h-121v368q0 87 62 149t150 62h159v-307z" />
    <glyph glyph-name="bekatakana" unicode="&#x30d9;" horiz-adv-x="673" 
d="M653 549h-121v181h121v-181zM411 302q0 -75 53 -128t128 -53v-121q-124 0 -212.5 87.5t-89.5 212.5v189h-38q-38 0 -64.5 -27t-26.5 -64v-368h-121v368q0 87 62 149t150 62h129v121h121v-181h-91v-247z" />
    <glyph glyph-name="pekatakana" unicode="&#x30da;" horiz-adv-x="673" 
d="M411 519v-217q0 -75 53 -128t128 -53v-121q-124 0 -212.5 87.5t-89.5 212.5v189h-38q-38 0 -64.5 -27t-26.5 -64v-368h-121v368q0 87 62 149t150 62h101q-3 15 -3 31q0 62 44.5 106.5t107 44.5t107 -44.5t44.5 -107t-44.5 -106.5t-106.5 -44q-51 0 -91 30zM501.5 670
q-12.5 0 -21.5 -9t-9 -21.5t9 -21.5t21.5 -9t21.5 9t9 21.5t-9 21.5t-21.5 9z" />
    <glyph glyph-name="hokatakana" unicode="&#x30db;" 
d="M474 368q49 0 83.5 -35t34.5 -84v-249h-121v247h-30v121h33zM70 121v247h121v-250q0 -49 -34.5 -83.5t-83.5 -34.5h-33v121h30zM381 549h211v-121h-211v-428h-121v428h-220v121h220v60h121v-60z" />
    <glyph glyph-name="bokatakana" unicode="&#x30dc;" horiz-adv-x="673" 
d="M532 730h121v-181h-61v-121h-211v-428h-121v428h-220v121h220v60h121v121h121v-181h30v181zM474 368q49 0 83.5 -35t34.5 -84v-249h-121v247h-30v121h33zM70 121v247h121v-250q0 -49 -34.5 -83.5t-83.5 -34.5h-33v121h30z" />
    <glyph glyph-name="pokatakana" unicode="&#x30dd;" horiz-adv-x="673" 
d="M474 368q49 0 83.5 -35t34.5 -84v-249h-121v247h-30v121h33zM70 121v247h121v-250q0 -49 -34.5 -83.5t-83.5 -34.5h-33v121h30zM501.5 792q62.5 0 107 -44.5t44.5 -106.5q0 -37 -16.5 -68.5t-44.5 -52.5v-92h-215v-428h-121v428h-216v121h216v60h98q-4 16 -4 32
q0 62 44.5 106.5t107 44.5zM501.5 671q-12.5 0 -21.5 -9t-9 -21.5t9 -21.5t21.5 -9t21.5 9t9 21.5t-9 21.5t-21.5 9zM377 549h4q-2 3 -4 7v-7z" />
    <glyph glyph-name="makatakana" unicode="&#x30de;" 
d="M471 609h121v-196q0 -96 -47.5 -177t-127.5 -128q16 -52 16 -108h-121q0 34 -9 66q-18 62 -64 107q-4 4 -9 8q-68 61 -160 61v121q88 0 164.5 -39.5t127.5 -107.5q50 32 79.5 84t29.5 113v76h-431v120h431z" />
    <glyph glyph-name="mikatakana" unicode="&#x30df;" 
d="M158 458q-49 0 -83.5 35t-34.5 84v32h121v-30h401v-121h-404zM474 151q49 0 83.5 -34.5t34.5 -83.5v-33h-121v30h-401v121h404zM562 244h-492v121h492v-121z" />
    <glyph glyph-name="mukatakana" unicode="&#x30e0;" 
d="M161 30h-121h121zM474 365q49 0 83.5 -34.5t34.5 -83.5v-245h-121v28h-431v338q0 100 71 170.5t171 70.5h129v-120h-129q-50 0 -85.5 -35.5t-35.5 -85.5v-217h310v93h-30v121h33z" />
    <glyph glyph-name="mekatakana" unicode="&#x30e1;" horiz-adv-x="599" 
d="M559 609v-151q0 -105 -46 -199q46 -93 46 -199v-60h-121v60q0 40 -9 78q-64 -65 -149 -101.5t-180 -36.5h-60v121h60q83 0 154.5 37t118.5 101q-47 65 -118.5 102t-154.5 37h-30v121h30q95 0 180 -36.5t149 -102.5q9 39 9 78v151h121z" />
    <glyph glyph-name="mokatakana" unicode="&#x30e2;" 
d="M592 489h-340v-64h340v-121h-340v-153q0 -12 8.5 -21t21.5 -9h310v-121h-310q-63 0 -107 44.5t-44 106.5v153h-91v121h91v64h-91v120h552v-120z" />
    <glyph glyph-name="yasmallkatakana" unicode="&#x30e3;" horiz-adv-x="503" 
d="M221 423h242v-121q0 -87 -62 -149t-149 -62v121q37 0 63.5 26.5t26.5 63.5h-121v-302h-121v302h-60v121h60v61h121v-61z" />
    <glyph glyph-name="yakatakana" unicode="&#x30e4;" 
d="M221 549h371v-121q0 -125 -88.5 -213.5t-213.5 -88.5v121q75 0 128 53t53 128h-250v-428h-121v428h-60v121h60v60h121v-60z" />
    <glyph glyph-name="yusmallkatakana" unicode="&#x30e5;" horiz-adv-x="503" 
d="M402 121h61v-121h-423v121h241v181q0 25 -17.5 43t-42.5 18h-151v121h151q31 0 60 -11q39 -13 68 -42.5t43 -67.5q10 -29 10 -61v-181z" />
    <glyph glyph-name="yukatakana" unicode="&#x30e6;" 
d="M502 428v-307h90v-121h-552v121h341v307q0 25 -18 43t-43 18h-250v120h250q31 0 61 -10q38 -14 67.5 -43t42.5 -67q11 -30 11 -61z" />
    <glyph glyph-name="yosmallkatakana" unicode="&#x30e7;" horiz-adv-x="503" 
d="M463 302v-121q0 -31 -11 -60q-13 -39 -42.5 -68t-67.5 -43q-30 -10 -61 -10h-241v121h241q25 0 43 17.5t18 42.5h-302v121h302q0 25 -18 43t-43 18h-241v121h241q31 0 61 -11q38 -13 67.5 -42.5t42.5 -67.5q11 -29 11 -61z" />
    <glyph glyph-name="yokatakana" unicode="&#x30e8;" 
d="M377 609q89 0 152 -63t63 -152v-178q0 -90 -63 -153t-152 -63h-337v121h337q39 0 66.5 27.5t27.5 67.5v28h-431v121h431v29q0 39 -27.5 67t-66.5 28h-337v120h337z" />
    <glyph glyph-name="rakatakana" unicode="&#x30e9;" 
d="M40 428h552v-75q0 -22 -3 -46q-17 -131 -116.5 -219t-233.5 -88h-199v121h199q84 0 148 53t80 133h-427v121zM592 489h-552v120h552v-120z" />
    <glyph glyph-name="rikatakana" unicode="&#x30ea;" horiz-adv-x="599" 
d="M438 609h121v-256q0 -96 -47.5 -177.5t-128.5 -128.5t-177 -47h-166v121h166q96 0 164 68t68 164v256zM161 247h-121v362h121v-362z" />
    <glyph glyph-name="rukatakana" unicode="&#x30eb;" 
d="M471 302h121q0 -91 -50 -166t-131 -111q-58 -25 -121 -25v609h121v-442q60 54 60 135zM70 121v488h121v-491q0 -49 -34.5 -83.5t-83.5 -34.5h-33v121h30z" />
    <glyph glyph-name="rekatakana" unicode="&#x30ec;" horiz-adv-x="602" 
d="M441 353h121q0 -96 -47 -177.5t-128.5 -128.5t-177.5 -47h-169v609h121v-488h48q96 0 164 68t68 164z" />
    <glyph glyph-name="rokatakana" unicode="&#x30ed;" 
d="M474 609q49 0 83.5 -34.5t34.5 -83.5v-373q0 -49 -34.5 -83.5t-83.5 -34.5h-316q-49 0 -83.5 34.5t-34.5 83.5v373q0 49 34.5 83.5t83.5 34.5h316zM471 121v368h-310v-368h310z" />
    <glyph glyph-name="wakatakana" unicode="&#x30ef;" 
d="M471 609h121v-256q0 -96 -47 -177.5t-128.5 -128.5t-177.5 -47h-199v121h199q96 0 164 68t68 164v136h-310v-182h-121v302h121h310z" />
    <glyph glyph-name="wokatakana" unicode="&#x30f2;" 
d="M40 609h552v-256q0 -38 -8 -76q-4 -16 -8 -30q-34 -109 -127 -178t-210 -69h-199v121h199q67 0 122 34.5t85 91.5q7 14 12 30h-418v121h431v91h-431v120zM471 609h121h-121z" />
    <glyph glyph-name="nkatakana" unicode="&#x30f3;" 
d="M342 489h-302v120h302v-120zM471 609h121v-256q0 -96 -47 -177.5t-128.5 -128.5t-177.5 -47h-199v121h199q96 0 164 68t68 164v256z" />
    <glyph glyph-name="vukatakana" unicode="&#x30f4;" horiz-adv-x="673" 
d="M532 730h121v-181h-61v-196q0 -96 -47 -177t-128.5 -128.5t-177.5 -47.5h-199v121h199q96 0 164 68t68 164v75h-310v-135h-121v256h216v61h121v-61h4v181h121v-181h30v181z" />
    <glyph glyph-name="dotkatakana" unicode="&#x30fb;" horiz-adv-x="502" 
d="M251 365q25 0 42.5 -17.5t17.5 -42.5t-17.5 -43t-42.5 -18t-43 18t-18 43t18 42.5t43 17.5z" />
    <glyph glyph-name="prolongedkana" unicode="&#x30fc;" 
d="M592 244h-552v121h552v-121z" />
    <glyph glyph-name="unie907" unicode="&#xe907;" horiz-adv-x="1212" 
d="M40 700h1132v-699h-1132v699z" />
    <glyph glyph-name="unie908" unicode="&#xe908;" horiz-adv-x="965" 
d="M40 1q0 120 32 235t89 212t138.5 178.5t178.5 138.5t212 89t235 32v-448q-89 0 -170 -34.5t-139.5 -93t-93.5 -139.5t-35 -170h-447z" />
    </font>
</defs>
</svg>
