<svg width="2880" height="239" viewBox="0 0 2880 239" fill="none" xmlns="http://www.w3.org/2000/svg">
<path d="M0 54.8199V239H1080.33C1047.28 197.869 996.67 171.562 939.948 171.562C908.763 171.562 879.427 179.514 853.84 193.509C818.683 127.731 749.522 82.999 669.953 82.999C591.377 82.999 522.952 126.62 487.399 191.054C479.551 190.145 471.568 189.678 463.476 189.678C415.003 189.678 370.448 206.442 335.302 234.485C317.79 169.262 258.202 121.242 187.386 121.242C171.766 121.242 156.692 123.578 142.495 127.92C110.683 83.6541 58.7121 54.8199 0 54.8199Z" fill="#FF9767"/>
<path d="M1080.35 239H2880V54.8198C2849.56 54.8198 2820.92 62.573 2795.97 76.2106C2753.43 29.6591 2692.31 0.473633 2624.4 0.473633C2537.57 0.473633 2461.84 48.1865 2421.85 118.906C2408.05 115.179 2393.55 113.191 2378.58 113.191C2327.97 113.191 2282.63 135.929 2252.14 171.797C2244.14 170.321 2235.89 169.549 2227.47 169.549C2194.45 169.549 2164.19 181.387 2140.63 201.075C2098.69 149.749 2035 117 1963.69 117C1935.69 117 1908.86 122.05 1884.07 131.291C1831.62 74.5301 1756.63 39 1673.37 39C1596.87 39 1527.37 68.9886 1475.9 117.878C1434.07 71.7192 1373.74 42.7422 1306.66 42.7422C1191.59 42.7422 1096.38 128.007 1080.35 239Z" fill="#FF9767"/>
</svg>
