<svg width="2880" height="366" viewBox="0 0 2880 366" fill="none" xmlns="http://www.w3.org/2000/svg">
<path d="M326.6 290.133C302.344 290.133 279.479 284.18 259.385 273.656C236.618 294.489 206.293 307.2 173 307.2C102.308 307.2 45 249.893 45 179.2C45 108.508 102.308 51.2002 173 51.2002C186.34 51.2002 199.203 53.2408 211.294 57.0268C237.803 22.3609 279.59 0 326.6 0C391.878 0 447.086 43.1167 465.298 102.425C516.14 103.575 557 145.15 557 196.267C557 248.108 514.975 290.134 463.133 290.134C440.274 290.134 419.324 281.963 403.043 268.382C380.846 282.171 354.653 290.133 326.6 290.133Z" fill="#F7855F"/>
<path d="M1262.4 290.133C1286.66 290.133 1309.52 284.18 1329.62 273.656C1352.38 294.489 1382.71 307.2 1416 307.2C1444.16 307.2 1470.19 298.109 1491.32 282.702C1509.67 330.931 1556.33 365.2 1611 365.2C1644.29 365.2 1674.62 352.489 1697.39 331.656C1717.48 342.18 1740.34 348.133 1764.6 348.133C1792.65 348.133 1818.85 340.171 1841.04 326.382C1857.32 339.963 1878.27 348.134 1901.13 348.134C1952.97 348.134 1995 306.108 1995 254.267C1995 203.15 1954.14 161.575 1903.3 160.425C1885.09 101.117 1829.88 58 1764.6 58C1717.59 58 1675.8 80.3609 1649.29 115.027C1637.2 111.241 1624.34 109.2 1611 109.2C1582.84 109.2 1556.81 118.291 1535.68 133.698C1517.33 85.47 1470.67 51.2002 1416 51.2002C1402.66 51.2002 1389.8 53.2408 1377.71 57.0268C1351.2 22.3609 1309.41 0 1262.4 0C1197.12 0 1141.91 43.1167 1123.7 102.425C1072.86 103.575 1032 145.15 1032 196.267C1032 248.108 1074.03 290.134 1125.87 290.134C1148.73 290.134 1169.68 281.963 1185.96 268.382C1208.15 282.171 1234.35 290.133 1262.4 290.133Z" fill="#F7855F"/>
<path d="M2541.62 273.656C2521.52 284.18 2498.66 290.133 2474.4 290.133C2446.35 290.133 2420.15 282.171 2397.96 268.382C2381.68 281.963 2360.73 290.134 2337.87 290.134C2286.03 290.134 2244 248.108 2244 196.267C2244 145.15 2284.86 103.575 2335.7 102.425C2353.91 43.1167 2409.12 0 2474.4 0C2521.41 0 2563.2 22.3609 2589.71 57.0268C2601.8 53.2408 2614.66 51.2002 2628 51.2002C2698.69 51.2002 2756 108.508 2756 179.2C2756 249.893 2698.69 307.2 2628 307.2C2594.71 307.2 2564.38 294.489 2541.62 273.656Z" fill="#F7855F"/>
</svg>
