<svg width="2880" height="551" viewBox="0 0 2880 551" fill="none" xmlns="http://www.w3.org/2000/svg">
<path d="M1042.4 435.2C1006.02 435.2 971.718 426.271 941.578 410.483C907.426 441.734 861.94 460.8 812 460.8C705.961 460.8 620 374.839 620 268.8C620 162.762 705.961 76.8003 812 76.8003C832.009 76.8003 851.304 79.8611 869.441 85.5401C909.204 33.5414 971.885 0 1042.4 0C1140.32 0 1223.13 64.675 1250.45 153.637C1326.71 155.363 1388 217.724 1388 294.401C1388 372.162 1324.96 435.201 1247.2 435.201C1212.91 435.201 1181.49 422.944 1157.06 402.573C1123.77 423.256 1084.48 435.2 1042.4 435.2Z" fill="#FB8F62"/>
<path d="M2880 96.6511C2806.38 115.301 2747.71 171.48 2725.55 243.637C2649.29 245.363 2588 307.724 2588 384.401C2588 462.162 2651.04 525.201 2728.8 525.201C2763.09 525.201 2794.51 512.944 2818.94 492.573C2837.6 504.164 2858.14 513.011 2880 518.549V96.6511Z" fill="#FB8F62"/>
<path d="M2315.83 551C2397.2 528.718 2457 454.243 2457 365.8C2457 259.762 2371.04 173.8 2265 173.8C2244.99 173.8 2225.7 176.861 2207.56 182.54C2167.8 130.541 2105.12 97 2034.6 97C1936.68 97 1853.87 161.675 1826.55 250.637C1750.29 252.363 1689 314.724 1689 391.401C1689 469.162 1752.04 532.201 1829.8 532.201C1864.09 532.201 1895.51 519.944 1919.94 499.573C1953.23 520.256 1992.52 532.2 2034.6 532.2C2070.98 532.2 2105.28 523.271 2135.42 507.483C2157.54 527.723 2184.41 542.851 2214.17 551H2315.83Z" fill="#FB8F62"/>
<path d="M0 518.549C17.1462 522.892 35.1036 525.2 53.6001 525.2C89.9838 525.2 124.282 516.271 154.422 500.483C188.574 531.734 234.06 550.8 284 550.8C390.039 550.8 476 464.839 476 358.8C476 252.762 390.039 166.8 284 166.8C263.991 166.8 244.696 169.861 226.559 175.54C186.796 123.541 124.115 90 53.6001 90C35.1036 90 17.1462 92.3078 0 96.6511V518.549Z" fill="#FB8F62"/>
</svg>
