<svg width="2880" height="154" viewBox="0 0 2880 154" fill="none" xmlns="http://www.w3.org/2000/svg">
<path d="M94.8001 145.067C82.6721 145.067 71.2394 142.09 61.1926 136.828C49.8411 147.215 34.7324 153.564 18.1413 153.6H17.8588C11.6593 153.587 5.66682 152.692 0 151.034V28.1661C5.70985 26.4959 11.7503 25.6001 18 25.6001C24.6698 25.6001 31.1013 26.6204 37.147 28.5134C50.4013 11.1805 71.295 0 94.8001 0C127.439 0 155.043 21.5584 164.149 51.2124C189.57 51.7878 210 72.5748 210 98.1335C210 124.054 188.987 145.067 163.067 145.067C151.637 145.067 141.162 140.981 133.021 134.191C121.923 141.085 108.827 145.067 94.8001 145.067Z" fill="#F07559"/>
<path d="M543.2 0C510.561 0 482.957 21.5584 473.851 51.2124C448.43 51.7878 428 72.5748 428 98.1335C428 124.054 449.013 145.067 474.933 145.067C486.363 145.067 496.838 140.981 504.979 134.191C516.077 141.085 529.174 145.067 543.2 145.067C555.328 145.067 566.761 142.09 576.807 136.828C588.159 147.215 603.268 153.564 619.859 153.6H620.141C655.423 153.524 684 124.899 684 89.6001C684 54.2539 655.346 25.6001 620 25.6001C613.33 25.6001 606.899 26.6204 600.853 28.5134C587.599 11.1805 566.705 0 543.2 0Z" fill="#F07559"/>
<path d="M1012 89.6001C1012 124.899 1040.58 153.524 1075.86 153.6H1076.14C1092.73 153.564 1107.84 147.215 1119.19 136.828C1129.24 142.09 1140.67 145.067 1152.8 145.067C1166.83 145.067 1179.92 141.085 1191.02 134.191C1199.16 140.981 1209.64 145.067 1221.07 145.067C1246.99 145.067 1268 124.054 1268 98.1335C1268 72.5748 1247.57 51.7878 1222.15 51.2124C1213.04 21.5584 1185.44 0 1152.8 0C1129.29 0 1108.4 11.1805 1095.15 28.5134C1089.1 26.6204 1082.67 25.6001 1076 25.6001C1040.65 25.6001 1012 54.2539 1012 89.6001Z" fill="#F07559"/>
<path d="M1487.86 153.6C1452.58 153.524 1424 124.899 1424 89.6001C1424 54.2539 1452.65 25.6001 1488 25.6001C1494.67 25.6001 1501.1 26.6204 1507.15 28.5134C1520.4 11.1805 1541.29 0 1564.8 0C1597.44 0 1625.04 21.5584 1634.15 51.2124C1637.49 51.2881 1640.75 51.7128 1643.88 52.4516C1655.48 36.197 1674.5 25.6001 1696 25.6001C1702.67 25.6001 1709.1 26.6204 1715.15 28.5134C1728.4 11.1805 1749.29 0 1772.8 0C1805.44 0 1833.04 21.5584 1842.15 51.2124C1867.57 51.7878 1888 72.5748 1888 98.1335C1888 124.054 1866.99 145.067 1841.07 145.067C1829.64 145.067 1819.16 140.981 1811.02 134.191C1799.92 141.085 1786.83 145.067 1772.8 145.067C1760.67 145.067 1749.24 142.09 1739.19 136.828C1727.84 147.215 1712.73 153.564 1696.14 153.6H1695.86C1680.62 153.567 1666.63 148.207 1655.65 139.284C1648.95 142.97 1641.25 145.067 1633.07 145.067C1621.64 145.067 1611.16 140.981 1603.02 134.191C1591.92 141.085 1578.83 145.067 1564.8 145.067C1552.67 145.067 1541.24 142.09 1531.19 136.828C1519.84 147.215 1504.73 153.564 1488.14 153.6H1487.86Z" fill="#F07559"/>
<path d="M2218.81 136.828C2230.16 147.215 2245.27 153.564 2261.86 153.6H2262.14C2297.42 153.524 2326 124.899 2326 89.6001C2326 54.2539 2297.35 25.6001 2262 25.6001C2255.33 25.6001 2248.9 26.6204 2242.85 28.5134C2229.6 11.1805 2208.71 0 2185.2 0C2152.56 0 2124.96 21.5584 2115.85 51.2124C2090.43 51.7878 2070 72.5748 2070 98.1335C2070 124.054 2091.01 145.067 2116.93 145.067C2128.36 145.067 2138.84 140.981 2146.98 134.191C2158.08 141.085 2171.17 145.067 2185.2 145.067C2197.33 145.067 2208.76 142.09 2218.81 136.828Z" fill="#F07559"/>
<path d="M2880 28.166C2853.42 35.942 2834 60.5035 2834 89.6C2834 118.697 2853.42 143.258 2880 151.034V28.166Z" fill="#F07559"/>
</svg>
